<svg width="150" height="150" viewBox="0 0 150 150" fill="none" xmlns="http://www.w3.org/2000/svg">
    <path d="M25 0.5H125C138.531 0.5 149.5 11.469 149.5 25V125C149.5 138.531 138.531 149.5 125 149.5H25C11.469 149.5 0.5 138.531 0.5 125V25C0.5 11.469 11.469 0.5 25 0.5Z"
          stroke="black"/>
    <path d="M18.6738 94.9941V98H16.916V89.4688H20.2441C20.8848 89.4688 21.4473 89.5859 21.9316 89.8203C22.4199 90.0547 22.7949 90.3887 23.0566 90.8223C23.3184 91.252 23.4492 91.7422 23.4492 92.293C23.4492 93.1289 23.1621 93.7891 22.5879 94.2734C22.0176 94.7539 21.2266 94.9941 20.2148 94.9941H18.6738ZM18.6738 93.5703H20.2441C20.709 93.5703 21.0625 93.4609 21.3047 93.2422C21.5508 93.0234 21.6738 92.7109 21.6738 92.3047C21.6738 91.8867 21.5508 91.5488 21.3047 91.291C21.0586 91.0332 20.7188 90.9004 20.2852 90.8926H18.6738V93.5703Z"
          fill="black"/>
    <path d="M27.8203 94.877H26.4199V98H24.6621V89.4688H27.832C28.8398 89.4688 29.6172 89.6934 30.1641 90.1426C30.7109 90.5918 30.9844 91.2266 30.9844 92.0469C30.9844 92.6289 30.8574 93.1152 30.6035 93.5059C30.3535 93.8926 29.9727 94.2012 29.4609 94.4316L31.3066 97.918V98H29.4199L27.8203 94.877ZM26.4199 93.4531H27.8379C28.2793 93.4531 28.6211 93.3418 28.8633 93.1191C29.1055 92.8926 29.2266 92.582 29.2266 92.1875C29.2266 91.7852 29.1113 91.4688 28.8809 91.2383C28.6543 91.0078 28.3047 90.8926 27.832 90.8926H26.4199V93.4531Z"
          fill="black"/>
    <path d="M37.459 94.3027H34.084V96.5879H38.0449V98H32.3262V89.4688H38.0332V90.8926H34.084V92.9258H37.459V94.3027Z"
          fill="black"/>
    <path d="M42.2578 95.0293H38.959V93.6641H42.2578V95.0293Z" fill="black"/>
    <path d="M48.8613 94.3027H45.4863V96.5879H49.4473V98H43.7285V89.4688H49.4355V90.8926H45.4863V92.9258H48.8613V94.3027Z"
          fill="black"/>
    <path d="M52.7754 89.4688L54.9668 95.6562L57.1465 89.4688H59.4551V98H57.6914V95.668L57.8672 91.6426L55.5645 98H54.3574L52.0605 91.6484L52.2363 95.668V98H50.4785V89.4688H52.7754Z"
          fill="black"/>
    <path d="M62.748 94.9941V98H60.9902V89.4688H64.3184C64.959 89.4688 65.5215 89.5859 66.0059 89.8203C66.4941 90.0547 66.8691 90.3887 67.1309 90.8223C67.3926 91.252 67.5234 91.7422 67.5234 92.293C67.5234 93.1289 67.2363 93.7891 66.6621 94.2734C66.0918 94.7539 65.3008 94.9941 64.2891 94.9941H62.748ZM62.748 93.5703H64.3184C64.7832 93.5703 65.1367 93.4609 65.3789 93.2422C65.625 93.0234 65.748 92.7109 65.748 92.3047C65.748 91.8867 65.625 91.5488 65.3789 91.291C65.1328 91.0332 64.793 90.9004 64.3594 90.8926H62.748V93.5703Z"
          fill="black"/>
    <path d="M75.1582 90.8926H72.5449V98H70.7871V90.8926H68.209V89.4688H75.1582V90.8926Z" fill="black"/>
    <path d="M78.0352 98H76.2773V89.4688H78.0352V98Z" fill="black"/>
    <path d="M82.8223 95.8848L84.7559 89.4688H86.7129L83.7422 98H81.9082L78.9492 89.4688H80.9004L82.8223 95.8848Z"
          fill="black"/>
    <path d="M92.6543 94.3027H89.2793V96.5879H93.2402V98H87.5215V89.4688H93.2285V90.8926H89.2793V92.9258H92.6543V94.3027Z"
          fill="black"/>
    <path d="M101.684 95.7617C101.684 95.4297 101.566 95.1758 101.332 95C101.098 94.8203 100.676 94.6328 100.066 94.4375C99.457 94.2383 98.9746 94.043 98.6191 93.8516C97.6504 93.3281 97.166 92.623 97.166 91.7363C97.166 91.2754 97.2949 90.8652 97.5527 90.5059C97.8145 90.1426 98.1875 89.8594 98.6719 89.6562C99.1602 89.4531 99.707 89.3516 100.312 89.3516C100.922 89.3516 101.465 89.4629 101.941 89.6855C102.418 89.9043 102.787 90.2148 103.049 90.6172C103.314 91.0195 103.447 91.4766 103.447 91.9883H101.689C101.689 91.5977 101.566 91.2949 101.32 91.0801C101.074 90.8613 100.729 90.752 100.283 90.752C99.8535 90.752 99.5195 90.8438 99.2812 91.0273C99.043 91.207 98.9238 91.4453 98.9238 91.7422C98.9238 92.0195 99.0625 92.252 99.3398 92.4395C99.6211 92.627 100.033 92.8027 100.576 92.9668C101.576 93.2676 102.305 93.6406 102.762 94.0859C103.219 94.5312 103.447 95.0859 103.447 95.75C103.447 96.4883 103.168 97.0684 102.609 97.4902C102.051 97.9082 101.299 98.1172 100.354 98.1172C99.6973 98.1172 99.0996 97.998 98.5605 97.7598C98.0215 97.5176 97.6094 97.1875 97.3242 96.7695C97.043 96.3516 96.9023 95.8672 96.9023 95.3164H98.666C98.666 96.2578 99.2285 96.7285 100.354 96.7285C100.771 96.7285 101.098 96.6445 101.332 96.4766C101.566 96.3047 101.684 96.0664 101.684 95.7617Z"
          fill="black"/>
    <path d="M111.064 90.8926H108.451V98H106.693V90.8926H104.115V89.4688H111.064V90.8926Z" fill="black"/>
    <path d="M115.23 94.877H113.83V98H112.072V89.4688H115.242C116.25 89.4688 117.027 89.6934 117.574 90.1426C118.121 90.5918 118.395 91.2266 118.395 92.0469C118.395 92.6289 118.268 93.1152 118.014 93.5059C117.764 93.8926 117.383 94.2012 116.871 94.4316L118.717 97.918V98H116.83L115.23 94.877ZM113.83 93.4531H115.248C115.689 93.4531 116.031 93.3418 116.273 93.1191C116.516 92.8926 116.637 92.582 116.637 92.1875C116.637 91.7852 116.521 91.4688 116.291 91.2383C116.064 91.0078 115.715 90.8926 115.242 90.8926H113.83V93.4531Z"
          fill="black"/>
    <path d="M121.605 98H119.848V89.4688H121.605V98Z" fill="black"/>
    <path d="M125.912 94.5781L124.998 95.5625V98H123.24V89.4688H124.998V93.3359L125.771 92.2754L127.945 89.4688H130.107L127.078 93.2598L130.195 98H128.104L125.912 94.5781Z"
          fill="black"/>
    <path d="M135.99 94.3027H132.615V96.5879H136.576V98H130.857V89.4688H136.564V90.8926H132.615V92.9258H135.99V94.3027Z"
          fill="black"/>
    <path d="M32.0566 107.928C32.0566 108.768 31.9082 109.504 31.6113 110.137C31.3145 110.77 30.8887 111.258 30.334 111.602C29.7832 111.945 29.1504 112.117 28.4355 112.117C27.7285 112.117 27.0977 111.947 26.543 111.607C25.9883 111.268 25.5586 110.783 25.2539 110.154C24.9492 109.521 24.7949 108.795 24.791 107.975V107.553C24.791 106.713 24.9414 105.975 25.2422 105.338C25.5469 104.697 25.9746 104.207 26.5254 103.867C27.0801 103.523 27.7129 103.352 28.4238 103.352C29.1348 103.352 29.7656 103.523 30.3164 103.867C30.8711 104.207 31.2988 104.697 31.5996 105.338C31.9043 105.975 32.0566 106.711 32.0566 107.547V107.928ZM30.2754 107.541C30.2754 106.646 30.1152 105.967 29.7949 105.502C29.4746 105.037 29.0176 104.805 28.4238 104.805C27.834 104.805 27.3789 105.035 27.0586 105.496C26.7383 105.953 26.5762 106.625 26.5723 107.512V107.928C26.5723 108.799 26.7324 109.475 27.0527 109.955C27.373 110.436 27.834 110.676 28.4355 110.676C29.0254 110.676 29.4785 110.445 29.7949 109.984C30.1113 109.52 30.2715 108.844 30.2754 107.957V107.541Z"
          fill="black"/>
    <path d="M40.2715 112H38.5137L35.0918 106.387V112H33.334V103.469H35.0918L38.5195 109.094V103.469H40.2715V112Z"
          fill="black"/>
    <path d="M49.6113 110.242H46.5293L45.9434 112H44.0742L47.25 103.469H48.8789L52.0723 112H50.2031L49.6113 110.242ZM47.0039 108.818H49.1367L48.0645 105.625L47.0039 108.818Z"
          fill="black"/>
    <path d="M59.8066 112H58.0488L54.627 106.387V112H52.8691V103.469H54.627L58.0547 109.094V103.469H59.8066V112Z"
          fill="black"/>
    <path d="M66.2637 110.242H63.1816L62.5957 112H60.7266L63.9023 103.469H65.5312L68.7246 112H66.8555L66.2637 110.242ZM63.6562 108.818H65.7891L64.7168 105.625L63.6562 108.818Z"
          fill="black"/>
    <path d="M75.2402 104.893H72.627V112H70.8691V104.893H68.291V103.469H75.2402V104.893Z" fill="black"/>
    <path d="M83.0918 107.928C83.0918 108.768 82.9434 109.504 82.6465 110.137C82.3496 110.77 81.9238 111.258 81.3691 111.602C80.8184 111.945 80.1855 112.117 79.4707 112.117C78.7637 112.117 78.1328 111.947 77.5781 111.607C77.0234 111.268 76.5938 110.783 76.2891 110.154C75.9844 109.521 75.8301 108.795 75.8262 107.975V107.553C75.8262 106.713 75.9766 105.975 76.2773 105.338C76.582 104.697 77.0098 104.207 77.5605 103.867C78.1152 103.523 78.748 103.352 79.459 103.352C80.1699 103.352 80.8008 103.523 81.3516 103.867C81.9062 104.207 82.334 104.697 82.6348 105.338C82.9395 105.975 83.0918 106.711 83.0918 107.547V107.928ZM81.3105 107.541C81.3105 106.646 81.1504 105.967 80.8301 105.502C80.5098 105.037 80.0527 104.805 79.459 104.805C78.8691 104.805 78.4141 105.035 78.0938 105.496C77.7734 105.953 77.6113 106.625 77.6074 107.512V107.928C77.6074 108.799 77.7676 109.475 78.0879 109.955C78.4082 110.436 78.8691 110.676 79.4707 110.676C80.0605 110.676 80.5137 110.445 80.8301 109.984C81.1465 109.52 81.3066 108.844 81.3105 107.957V107.541Z"
          fill="black"/>
    <path d="M86.666 103.469L88.8574 109.656L91.0371 103.469H93.3457V112H91.582V109.668L91.7578 105.643L89.4551 112H88.248L85.9512 105.648L86.127 109.668V112H84.3691V103.469H86.666Z"
          fill="black"/>
    <path d="M97.6582 107.312L99.4336 103.469H101.355L98.5547 108.906V112H96.7676V108.906L93.9668 103.469H95.8945L97.6582 107.312Z"
          fill="black"/>
    <path d="M109.939 110.242H106.857L106.271 112H104.402L107.578 103.469H109.207L112.4 112H110.531L109.939 110.242ZM107.332 108.818H109.465L108.393 105.625L107.332 108.818Z"
          fill="black"/>
    <path d="M120.135 112H118.377L114.955 106.387V112H113.197V103.469H114.955L118.383 109.094V103.469H120.135V112Z"
          fill="black"/>
    <path d="M121.67 112V103.469H124.295C125.045 103.469 125.715 103.639 126.305 103.979C126.898 104.314 127.361 104.795 127.693 105.42C128.025 106.041 128.191 106.748 128.191 107.541V107.934C128.191 108.727 128.027 109.432 127.699 110.049C127.375 110.666 126.916 111.145 126.322 111.484C125.729 111.824 125.059 111.996 124.312 112H121.67ZM123.428 104.893V110.588H124.277C124.965 110.588 125.49 110.363 125.854 109.914C126.217 109.465 126.402 108.822 126.41 107.986V107.535C126.41 106.668 126.23 106.012 125.871 105.566C125.512 105.117 124.986 104.893 124.295 104.893H123.428Z"
          fill="black"/>
    <path d="M42.7324 122.994V126H40.9746V117.469H44.3027C44.9434 117.469 45.5059 117.586 45.9902 117.82C46.4785 118.055 46.8535 118.389 47.1152 118.822C47.377 119.252 47.5078 119.742 47.5078 120.293C47.5078 121.129 47.2207 121.789 46.6465 122.273C46.0762 122.754 45.2852 122.994 44.2734 122.994H42.7324ZM42.7324 121.57H44.3027C44.7676 121.57 45.1211 121.461 45.3633 121.242C45.6094 121.023 45.7324 120.711 45.7324 120.305C45.7324 119.887 45.6094 119.549 45.3633 119.291C45.1172 119.033 44.7773 118.9 44.3438 118.893H42.7324V121.57Z"
          fill="black"/>
    <path d="M55.6641 126H53.9062V122.344H50.4785V126H48.7207V117.469H50.4785V120.926H53.9062V117.469H55.6641V126Z"
          fill="black"/>
    <path d="M59.9824 121.312L61.7578 117.469H63.6797L60.8789 122.906V126H59.0918V122.906L56.291 117.469H58.2188L59.9824 121.312Z"
          fill="black"/>
    <path d="M68.7891 123.762C68.7891 123.43 68.6719 123.176 68.4375 123C68.2031 122.82 67.7812 122.633 67.1719 122.438C66.5625 122.238 66.0801 122.043 65.7246 121.852C64.7559 121.328 64.2715 120.623 64.2715 119.736C64.2715 119.275 64.4004 118.865 64.6582 118.506C64.9199 118.143 65.293 117.859 65.7773 117.656C66.2656 117.453 66.8125 117.352 67.418 117.352C68.0273 117.352 68.5703 117.463 69.0469 117.686C69.5234 117.904 69.8926 118.215 70.1543 118.617C70.4199 119.02 70.5527 119.477 70.5527 119.988H68.7949C68.7949 119.598 68.6719 119.295 68.4258 119.08C68.1797 118.861 67.834 118.752 67.3887 118.752C66.959 118.752 66.625 118.844 66.3867 119.027C66.1484 119.207 66.0293 119.445 66.0293 119.742C66.0293 120.02 66.168 120.252 66.4453 120.439C66.7266 120.627 67.1387 120.803 67.6816 120.967C68.6816 121.268 69.4102 121.641 69.8672 122.086C70.3242 122.531 70.5527 123.086 70.5527 123.75C70.5527 124.488 70.2734 125.068 69.7148 125.49C69.1562 125.908 68.4043 126.117 67.459 126.117C66.8027 126.117 66.2051 125.998 65.666 125.76C65.127 125.518 64.7148 125.188 64.4297 124.77C64.1484 124.352 64.0078 123.867 64.0078 123.316H65.7715C65.7715 124.258 66.334 124.729 67.459 124.729C67.877 124.729 68.2031 124.645 68.4375 124.477C68.6719 124.305 68.7891 124.066 68.7891 123.762Z"
          fill="black"/>
    <path d="M73.6172 126H71.8594V117.469H73.6172V126Z" fill="black"/>
    <path d="M82.2598 121.928C82.2598 122.768 82.1113 123.504 81.8145 124.137C81.5176 124.77 81.0918 125.258 80.5371 125.602C79.9863 125.945 79.3535 126.117 78.6387 126.117C77.9316 126.117 77.3008 125.947 76.7461 125.607C76.1914 125.268 75.7617 124.783 75.457 124.154C75.1523 123.521 74.998 122.795 74.9941 121.975V121.553C74.9941 120.713 75.1445 119.975 75.4453 119.338C75.75 118.697 76.1777 118.207 76.7285 117.867C77.2832 117.523 77.916 117.352 78.627 117.352C79.3379 117.352 79.9688 117.523 80.5195 117.867C81.0742 118.207 81.502 118.697 81.8027 119.338C82.1074 119.975 82.2598 120.711 82.2598 121.547V121.928ZM80.4785 121.541C80.4785 120.646 80.3184 119.967 79.998 119.502C79.6777 119.037 79.2207 118.805 78.627 118.805C78.0371 118.805 77.582 119.035 77.2617 119.496C76.9414 119.953 76.7793 120.625 76.7754 121.512V121.928C76.7754 122.799 76.9355 123.475 77.2559 123.955C77.5762 124.436 78.0371 124.676 78.6387 124.676C79.2285 124.676 79.6816 124.445 79.998 123.984C80.3145 123.52 80.4746 122.844 80.4785 121.957V121.541Z"
          fill="black"/>
    <path d="M85.2949 124.588H89.0273V126H83.5371V117.469H85.2949V124.588Z" fill="black"/>
    <path d="M96.6738 121.928C96.6738 122.768 96.5254 123.504 96.2285 124.137C95.9316 124.77 95.5059 125.258 94.9512 125.602C94.4004 125.945 93.7676 126.117 93.0527 126.117C92.3457 126.117 91.7148 125.947 91.1602 125.607C90.6055 125.268 90.1758 124.783 89.8711 124.154C89.5664 123.521 89.4121 122.795 89.4082 121.975V121.553C89.4082 120.713 89.5586 119.975 89.8594 119.338C90.1641 118.697 90.5918 118.207 91.1426 117.867C91.6973 117.523 92.3301 117.352 93.041 117.352C93.752 117.352 94.3828 117.523 94.9336 117.867C95.4883 118.207 95.916 118.697 96.2168 119.338C96.5215 119.975 96.6738 120.711 96.6738 121.547V121.928ZM94.8926 121.541C94.8926 120.646 94.7324 119.967 94.4121 119.502C94.0918 119.037 93.6348 118.805 93.041 118.805C92.4512 118.805 91.9961 119.035 91.6758 119.496C91.3555 119.953 91.1934 120.625 91.1895 121.512V121.928C91.1895 122.799 91.3496 123.475 91.6699 123.955C91.9902 124.436 92.4512 124.676 93.0527 124.676C93.6426 124.676 94.0957 124.445 94.4121 123.984C94.7285 123.52 94.8887 122.844 94.8926 121.957V121.541Z"
          fill="black"/>
    <path d="M104.701 124.922C104.385 125.301 103.938 125.596 103.359 125.807C102.781 126.014 102.141 126.117 101.438 126.117C100.699 126.117 100.051 125.957 99.4922 125.637C98.9375 125.312 98.5078 124.844 98.2031 124.23C97.9023 123.617 97.748 122.896 97.7402 122.068V121.488C97.7402 120.637 97.8828 119.9 98.168 119.279C98.457 118.654 98.8711 118.178 99.4102 117.85C99.9531 117.518 100.588 117.352 101.314 117.352C102.326 117.352 103.117 117.594 103.688 118.078C104.258 118.559 104.596 119.26 104.701 120.182H102.99C102.912 119.693 102.738 119.336 102.469 119.109C102.203 118.883 101.836 118.77 101.367 118.77C100.77 118.77 100.314 118.994 100.002 119.443C99.6895 119.893 99.5312 120.561 99.5273 121.447V121.992C99.5273 122.887 99.6973 123.562 100.037 124.02C100.377 124.477 100.875 124.705 101.531 124.705C102.191 124.705 102.662 124.564 102.943 124.283V122.812H101.344V121.518H104.701V124.922Z"
          fill="black"/>
    <path d="M109.072 121.312L110.848 117.469H112.77L109.969 122.906V126H108.182V122.906L105.381 117.469H107.309L109.072 121.312Z"
          fill="black"/>
    <path d="M24.4717 28.4766H25.8252C26.4697 28.4766 26.9473 28.3154 27.2578 27.9932C27.5684 27.6709 27.7236 27.2432 27.7236 26.71C27.7236 26.1943 27.5684 25.793 27.2578 25.5059C26.9531 25.2188 26.5312 25.0752 25.9922 25.0752C25.5059 25.0752 25.0986 25.21 24.7705 25.4795C24.4424 25.7432 24.2783 26.0889 24.2783 26.5166H21.7383C21.7383 25.8486 21.917 25.251 22.2744 24.7236C22.6377 24.1904 23.1416 23.7744 23.7861 23.4756C24.4365 23.1768 25.1514 23.0273 25.9307 23.0273C27.2842 23.0273 28.3447 23.3525 29.1123 24.0029C29.8799 24.6475 30.2637 25.5381 30.2637 26.6748C30.2637 27.2607 30.085 27.7998 29.7275 28.292C29.3701 28.7842 28.9014 29.1621 28.3213 29.4258C29.042 29.6836 29.5781 30.0703 29.9297 30.5859C30.2871 31.1016 30.4658 31.7109 30.4658 32.4141C30.4658 33.5508 30.0498 34.4619 29.2178 35.1475C28.3916 35.833 27.2959 36.1758 25.9307 36.1758C24.6533 36.1758 23.6074 35.8389 22.793 35.165C21.9844 34.4912 21.5801 33.6006 21.5801 32.4932H24.1201C24.1201 32.9736 24.2988 33.3662 24.6562 33.6709C25.0195 33.9756 25.4648 34.1279 25.9922 34.1279C26.5957 34.1279 27.0674 33.9697 27.4072 33.6533C27.7529 33.3311 27.9258 32.9062 27.9258 32.3789C27.9258 31.1016 27.2227 30.4629 25.8164 30.4629H24.4717V28.4766ZM40.8369 30.709C40.8369 32.4785 40.4707 33.832 39.7383 34.7695C39.0059 35.707 37.9336 36.1758 36.5215 36.1758C35.127 36.1758 34.0605 35.7158 33.3223 34.7959C32.584 33.876 32.2061 32.5576 32.1885 30.8408V28.4854C32.1885 26.6982 32.5576 25.3418 33.2959 24.416C34.04 23.4902 35.1094 23.0273 36.5039 23.0273C37.8984 23.0273 38.9648 23.4873 39.7031 24.4072C40.4414 25.3213 40.8193 26.6367 40.8369 28.3535V30.709ZM38.2969 28.125C38.2969 27.0645 38.1504 26.2939 37.8574 25.8135C37.5703 25.3271 37.1191 25.084 36.5039 25.084C35.9062 25.084 35.4639 25.3154 35.1768 25.7783C34.8955 26.2354 34.7461 26.9531 34.7285 27.9316V31.043C34.7285 32.0859 34.8691 32.8623 35.1504 33.3721C35.4375 33.876 35.8945 34.1279 36.5215 34.1279C37.1426 34.1279 37.5908 33.8848 37.8662 33.3984C38.1416 32.9121 38.2852 32.168 38.2969 31.166V28.125ZM51.1729 30.709C51.1729 32.4785 50.8066 33.832 50.0742 34.7695C49.3418 35.707 48.2695 36.1758 46.8574 36.1758C45.4629 36.1758 44.3965 35.7158 43.6582 34.7959C42.9199 33.876 42.542 32.5576 42.5244 30.8408V28.4854C42.5244 26.6982 42.8936 25.3418 43.6318 24.416C44.376 23.4902 45.4453 23.0273 46.8398 23.0273C48.2344 23.0273 49.3008 23.4873 50.0391 24.4072C50.7773 25.3213 51.1553 26.6367 51.1729 28.3535V30.709ZM48.6328 28.125C48.6328 27.0645 48.4863 26.2939 48.1934 25.8135C47.9062 25.3271 47.4551 25.084 46.8398 25.084C46.2422 25.084 45.7998 25.3154 45.5127 25.7783C45.2314 26.2354 45.082 26.9531 45.0645 27.9316V31.043C45.0645 32.0859 45.2051 32.8623 45.4863 33.3721C45.7734 33.876 46.2305 34.1279 46.8574 34.1279C47.4785 34.1279 47.9268 33.8848 48.2021 33.3984C48.4775 32.9121 48.6211 32.168 48.6328 31.166V28.125ZM61.5088 30.709C61.5088 32.4785 61.1426 33.832 60.4102 34.7695C59.6777 35.707 58.6055 36.1758 57.1934 36.1758C55.7988 36.1758 54.7324 35.7158 53.9941 34.7959C53.2559 33.876 52.8779 32.5576 52.8604 30.8408V28.4854C52.8604 26.6982 53.2295 25.3418 53.9678 24.416C54.7119 23.4902 55.7812 23.0273 57.1758 23.0273C58.5703 23.0273 59.6367 23.4873 60.375 24.4072C61.1133 25.3213 61.4912 26.6367 61.5088 28.3535V30.709ZM58.9688 28.125C58.9688 27.0645 58.8223 26.2939 58.5293 25.8135C58.2422 25.3271 57.791 25.084 57.1758 25.084C56.5781 25.084 56.1357 25.3154 55.8486 25.7783C55.5674 26.2354 55.418 26.9531 55.4004 27.9316V31.043C55.4004 32.0859 55.541 32.8623 55.8223 33.3721C56.1094 33.876 56.5664 34.1279 57.1934 34.1279C57.8145 34.1279 58.2627 33.8848 58.5381 33.3984C58.8135 32.9121 58.957 32.168 58.9688 31.166V28.125ZM68.4609 28.8369H71.6338V31.1309H68.4609V34.7168H66.0439V31.1309H62.8623V28.8369H66.0439V25.4004H68.4609V28.8369ZM93.167 36.1758C91.7725 36.1758 90.6357 35.748 89.7568 34.8926C88.8838 34.0371 88.4473 32.8975 88.4473 31.4736V31.2275C88.4473 30.2725 88.6318 29.4199 89.001 28.6699C89.3701 27.9141 89.8916 27.334 90.5654 26.9297C91.2451 26.5195 92.0186 26.3145 92.8857 26.3145C94.1865 26.3145 95.209 26.7246 95.9531 27.5449C96.7031 28.3652 97.0781 29.5283 97.0781 31.0342V32.0713H91.0225C91.1045 32.6924 91.3506 33.1904 91.7607 33.5654C92.1768 33.9404 92.7012 34.1279 93.334 34.1279C94.3125 34.1279 95.0771 33.7734 95.6279 33.0645L96.876 34.4619C96.4951 35.001 95.9795 35.4229 95.3291 35.7275C94.6787 36.0264 93.958 36.1758 93.167 36.1758ZM92.877 28.3711C92.373 28.3711 91.9629 28.541 91.6465 28.8809C91.3359 29.2207 91.1367 29.707 91.0488 30.3398H94.582V30.1377C94.5703 29.5752 94.418 29.1416 94.125 28.8369C93.832 28.5264 93.416 28.3711 92.877 28.3711ZM103.872 28.8721C103.526 28.8252 103.222 28.8018 102.958 28.8018C101.997 28.8018 101.367 29.127 101.068 29.7773V36H98.5283V26.4902H100.928L100.998 27.624C101.508 26.751 102.214 26.3145 103.116 26.3145C103.397 26.3145 103.661 26.3525 103.907 26.4287L103.872 28.8721ZM107.484 26.4902L107.563 27.5537C108.237 26.7275 109.148 26.3145 110.297 26.3145C111.521 26.3145 112.362 26.7979 112.819 27.7646C113.487 26.7979 114.439 26.3145 115.676 26.3145C116.707 26.3145 117.475 26.6162 117.979 27.2197C118.482 27.8174 118.734 28.7197 118.734 29.9268V36H116.186V29.9355C116.186 29.3965 116.08 29.0039 115.869 28.7578C115.658 28.5059 115.286 28.3799 114.753 28.3799C113.991 28.3799 113.464 28.7432 113.171 29.4697L113.18 36H110.64V29.9443C110.64 29.3936 110.531 28.9951 110.314 28.749C110.098 28.5029 109.729 28.3799 109.207 28.3799C108.486 28.3799 107.965 28.6787 107.643 29.2764V36H105.103V26.4902H107.484ZM125.845 33.3721C125.845 33.0615 125.689 32.8184 125.379 32.6426C125.074 32.4609 124.582 32.2998 123.902 32.1592C121.641 31.6846 120.51 30.7236 120.51 29.2764C120.51 28.4326 120.858 27.7295 121.556 27.167C122.259 26.5986 123.176 26.3145 124.307 26.3145C125.514 26.3145 126.478 26.5986 127.198 27.167C127.925 27.7354 128.288 28.4736 128.288 29.3818H125.748C125.748 29.0186 125.631 28.7197 125.396 28.4854C125.162 28.2451 124.796 28.125 124.298 28.125C123.87 28.125 123.539 28.2217 123.305 28.415C123.07 28.6084 122.953 28.8545 122.953 29.1533C122.953 29.4346 123.085 29.6631 123.349 29.8389C123.618 30.0088 124.069 30.1582 124.702 30.2871C125.335 30.4102 125.868 30.5508 126.302 30.709C127.644 31.2012 128.314 32.0537 128.314 33.2666C128.314 34.1338 127.942 34.8369 127.198 35.376C126.454 35.9092 125.493 36.1758 124.315 36.1758C123.519 36.1758 122.81 36.0352 122.188 35.7539C121.573 35.4668 121.09 35.0771 120.738 34.585C120.387 34.0869 120.211 33.5508 120.211 32.9766H122.619C122.643 33.4277 122.81 33.7734 123.12 34.0137C123.431 34.2539 123.847 34.374 124.368 34.374C124.854 34.374 125.221 34.2832 125.467 34.1016C125.719 33.9141 125.845 33.6709 125.845 33.3721Z"
          fill="black"/>
    <path d="M87.4453 25.3389H83.5254V36H80.8887V25.3389H77.0215V23.2031H87.4453V25.3389Z" fill="#EB3223"/>
    <path d="M31.1152 57H28.5752V47.209L25.543 48.1494V46.084L30.8428 44.1855H31.1152V57ZM42.7959 52.1836H44.2461V54.2314H42.7959V57H40.2559V54.2314H35.0088L34.8945 52.6318L40.2295 44.2031H42.7959V52.1836ZM37.4258 52.1836H40.2559V47.666L40.0889 47.9561L37.4258 52.1836ZM54.2305 51.709C54.2305 53.4785 53.8643 54.832 53.1318 55.7695C52.3994 56.707 51.3271 57.1758 49.915 57.1758C48.5205 57.1758 47.4541 56.7158 46.7158 55.7959C45.9775 54.876 45.5996 53.5576 45.582 51.8408V49.4854C45.582 47.6982 45.9512 46.3418 46.6895 45.416C47.4336 44.4902 48.5029 44.0273 49.8975 44.0273C51.292 44.0273 52.3584 44.4873 53.0967 45.4072C53.835 46.3213 54.2129 47.6367 54.2305 49.3535V51.709ZM51.6904 49.125C51.6904 48.0645 51.5439 47.2939 51.251 46.8135C50.9639 46.3271 50.5127 46.084 49.8975 46.084C49.2998 46.084 48.8574 46.3154 48.5703 46.7783C48.2891 47.2354 48.1396 47.9531 48.1221 48.9316V52.043C48.1221 53.0859 48.2627 53.8623 48.5439 54.3721C48.8311 54.876 49.2881 55.1279 49.915 55.1279C50.5361 55.1279 50.9844 54.8848 51.2598 54.3984C51.5352 53.9121 51.6787 53.168 51.6904 52.166V49.125ZM64.5664 51.709C64.5664 53.4785 64.2002 54.832 63.4678 55.7695C62.7354 56.707 61.6631 57.1758 60.251 57.1758C58.8564 57.1758 57.79 56.7158 57.0518 55.7959C56.3135 54.876 55.9355 53.5576 55.918 51.8408V49.4854C55.918 47.6982 56.2871 46.3418 57.0254 45.416C57.7695 44.4902 58.8389 44.0273 60.2334 44.0273C61.6279 44.0273 62.6943 44.4873 63.4326 45.4072C64.1709 46.3213 64.5488 47.6367 64.5664 49.3535V51.709ZM62.0264 49.125C62.0264 48.0645 61.8799 47.2939 61.5869 46.8135C61.2998 46.3271 60.8486 46.084 60.2334 46.084C59.6357 46.084 59.1934 46.3154 58.9062 46.7783C58.625 47.2354 58.4756 47.9531 58.458 48.9316V52.043C58.458 53.0859 58.5986 53.8623 58.8799 54.3721C59.167 54.876 59.624 55.1279 60.251 55.1279C60.8721 55.1279 61.3203 54.8848 61.5957 54.3984C61.8711 53.9121 62.0146 53.168 62.0264 52.166V49.125ZM71.5186 49.8369H74.6914V52.1309H71.5186V55.7168H69.1016V52.1309H65.9199V49.8369H69.1016V46.4004H71.5186V49.8369ZM91.8037 52.1572C91.8037 51.2139 91.9854 50.373 92.3486 49.6348C92.7119 48.8965 93.2334 48.3252 93.9131 47.9209C94.5986 47.5166 95.3926 47.3145 96.2949 47.3145C97.5781 47.3145 98.624 47.707 99.4326 48.4922C100.247 49.2773 100.701 50.3438 100.795 51.6914L100.812 52.3418C100.812 53.8008 100.405 54.9727 99.5908 55.8574C98.7764 56.7363 97.6836 57.1758 96.3125 57.1758C94.9414 57.1758 93.8457 56.7363 93.0254 55.8574C92.2109 54.9785 91.8037 53.7832 91.8037 52.2715V52.1572ZM94.3438 52.3418C94.3438 53.2441 94.5137 53.9355 94.8535 54.416C95.1934 54.8906 95.6797 55.1279 96.3125 55.1279C96.9277 55.1279 97.4082 54.8936 97.7539 54.4248C98.0996 53.9502 98.2725 53.1943 98.2725 52.1572C98.2725 51.2725 98.0996 50.5869 97.7539 50.1006C97.4082 49.6143 96.9219 49.3711 96.2949 49.3711C95.6738 49.3711 95.1934 49.6143 94.8535 50.1006C94.5137 50.5811 94.3438 51.3281 94.3438 52.3418ZM101.981 52.1572C101.981 51.2139 102.163 50.373 102.526 49.6348C102.89 48.8965 103.411 48.3252 104.091 47.9209C104.776 47.5166 105.57 47.3145 106.473 47.3145C107.756 47.3145 108.802 47.707 109.61 48.4922C110.425 49.2773 110.879 50.3438 110.973 51.6914L110.99 52.3418C110.99 53.8008 110.583 54.9727 109.769 55.8574C108.954 56.7363 107.861 57.1758 106.49 57.1758C105.119 57.1758 104.023 56.7363 103.203 55.8574C102.389 54.9785 101.981 53.7832 101.981 52.2715V52.1572ZM104.521 52.3418C104.521 53.2441 104.691 53.9355 105.031 54.416C105.371 54.8906 105.857 55.1279 106.49 55.1279C107.105 55.1279 107.586 54.8936 107.932 54.4248C108.277 53.9502 108.45 53.1943 108.45 52.1572C108.45 51.2725 108.277 50.5869 107.932 50.1006C107.586 49.6143 107.1 49.3711 106.473 49.3711C105.852 49.3711 105.371 49.6143 105.031 50.1006C104.691 50.5811 104.521 51.3281 104.521 52.3418ZM115.596 45.1523V47.4902H117.222V49.3535H115.596V54.0996C115.596 54.4512 115.663 54.7031 115.798 54.8555C115.933 55.0078 116.19 55.084 116.571 55.084C116.853 55.084 117.102 55.0635 117.318 55.0225V56.9473C116.82 57.0996 116.308 57.1758 115.78 57.1758C113.999 57.1758 113.091 56.2764 113.056 54.4775V49.3535H111.667V47.4902H113.056V45.1523H115.596ZM123.787 54.3721C123.787 54.0615 123.632 53.8184 123.321 53.6426C123.017 53.4609 122.524 53.2998 121.845 53.1592C119.583 52.6846 118.452 51.7236 118.452 50.2764C118.452 49.4326 118.801 48.7295 119.498 48.167C120.201 47.5986 121.118 47.3145 122.249 47.3145C123.456 47.3145 124.42 47.5986 125.141 48.167C125.867 48.7354 126.23 49.4736 126.23 50.3818H123.69C123.69 50.0186 123.573 49.7197 123.339 49.4854C123.104 49.2451 122.738 49.125 122.24 49.125C121.812 49.125 121.481 49.2217 121.247 49.415C121.013 49.6084 120.896 49.8545 120.896 50.1533C120.896 50.4346 121.027 50.6631 121.291 50.8389C121.561 51.0088 122.012 51.1582 122.645 51.2871C123.277 51.4102 123.811 51.5508 124.244 51.709C125.586 52.2012 126.257 53.0537 126.257 54.2666C126.257 55.1338 125.885 55.8369 125.141 56.376C124.396 56.9092 123.436 57.1758 122.258 57.1758C121.461 57.1758 120.752 57.0352 120.131 56.7539C119.516 56.4668 119.032 56.0771 118.681 55.585C118.329 55.0869 118.153 54.5508 118.153 53.9766H120.562C120.585 54.4277 120.752 54.7734 121.062 55.0137C121.373 55.2539 121.789 55.374 122.311 55.374C122.797 55.374 123.163 55.2832 123.409 55.1016C123.661 54.9141 123.787 54.6709 123.787 54.3721Z"
          fill="black"/>
    <path d="M85.6074 52.3154H83.5068V57H80.8701V44.2031H85.625C87.1367 44.2031 88.3027 44.54 89.123 45.2139C89.9434 45.8877 90.3535 46.8398 90.3535 48.0703C90.3535 48.9434 90.1631 49.6729 89.7822 50.2588C89.4072 50.8389 88.8359 51.3018 88.0684 51.6475L90.8369 56.877V57H88.0068L85.6074 52.3154ZM83.5068 50.1797H85.6338C86.2959 50.1797 86.8086 50.0127 87.1719 49.6787C87.5352 49.3389 87.7168 48.873 87.7168 48.2812C87.7168 47.6777 87.5439 47.2031 87.1982 46.8574C86.8584 46.5117 86.334 46.3389 85.625 46.3389H83.5068V50.1797Z"
          fill="#4CAFEA"/>
</svg>
