<svg width="152" height="152" viewBox="0 0 152 152" fill="none" xmlns="http://www.w3.org/2000/svg">
    <path d="M1 58L57.5 1L151 37V67L141 136L73 151H30L1 104V58Z" fill="#2596FF" stroke="#2596FF"/>
    <path d="M45.137 109.862C44.5796 109.862 44.115 109.677 43.7434 109.305C43.3811 108.943 43.2 108.52 43.2 108.037C43.2 107.545 43.3161 107.089 43.5483 106.671C43.7806 106.244 44.1104 105.849 44.5378 105.487C44.9744 105.124 45.5411 104.827 46.2379 104.595C46.9347 104.353 47.7058 104.219 48.5512 104.191C49.0436 102.974 49.4802 101.613 49.8611 100.108C49.8704 100.052 49.875 99.9822 49.875 99.8986C49.875 99.8057 49.8286 99.7267 49.7357 99.6617V99.5223C50.5347 99.3737 51.2639 99.2993 51.9236 99.2993L52.7597 99.3551C53.0012 99.7824 53.136 100.377 53.1638 101.139C53.1917 101.891 53.2103 103.201 53.2196 105.069C54.2229 105.505 55.0823 106.058 55.7976 106.727C55.7605 106.848 55.6861 106.969 55.5747 107.089C55.4725 107.201 55.3749 107.284 55.282 107.34L55.1427 107.424C54.5945 106.885 53.9581 106.425 53.2335 106.044C53.2521 106.574 53.3032 107.02 53.3868 107.382C53.5169 107.977 53.6701 108.274 53.8467 108.274C53.9489 108.274 54.0696 108.251 54.209 108.204L54.418 108.748C53.777 109.156 53.1638 109.361 52.5785 109.361C51.6123 109.361 51.1292 108.631 51.1292 107.173V105.347C50.4789 105.189 49.889 105.092 49.3594 105.055C48.1517 108.26 46.7442 109.862 45.137 109.862ZM48.2028 105.041C47.153 105.124 46.2797 105.491 45.5829 106.142C44.8861 106.792 44.5378 107.401 44.5378 107.967C44.5378 108.534 44.7561 108.817 45.1927 108.817C46.0846 108.817 47.0879 107.558 48.2028 105.041ZM50.976 100.414C50.9574 100.405 50.9202 100.4 50.8645 100.4C50.8087 100.4 50.7716 100.405 50.753 100.414C50.6694 101.12 50.307 102.388 49.666 104.219C50.1212 104.246 50.609 104.311 51.1292 104.414C51.1292 102.128 51.0781 100.795 50.976 100.414Z"
          fill="white"/>
    <path d="M55.0541 109.235H54.7894C54.7894 108.799 54.9194 107.963 55.1796 106.727C55.449 105.491 55.5837 104.79 55.5837 104.623C55.5837 104.316 55.4536 103.991 55.1935 103.647L55.0681 103.48L55.082 103.299C55.5837 103.159 56.3873 103.09 57.4929 103.09C57.6136 103.248 57.6787 103.536 57.688 103.954C58.4962 103.331 59.179 103.02 59.7365 103.02C60.0709 103.02 60.3357 103.136 60.5308 103.369C60.7352 103.601 60.8374 103.893 60.8374 104.246C60.8374 104.59 60.7305 105.189 60.5169 106.044C60.3032 106.899 60.1963 107.475 60.1963 107.772C60.1963 108.06 60.2335 108.204 60.3078 108.204C60.3636 108.204 60.5587 108.116 60.8931 107.939L61.0603 107.856L61.3112 108.343C61.2276 108.418 61.1161 108.511 60.9767 108.622C60.8374 108.734 60.5772 108.887 60.1963 109.082C59.8247 109.268 59.4903 109.361 59.193 109.361C58.5148 109.361 58.1757 108.975 58.1757 108.204C58.1757 107.879 58.2779 107.28 58.4823 106.406C58.696 105.533 58.8028 104.971 58.8028 104.72C58.8028 104.469 58.7238 104.344 58.5659 104.344C58.2965 104.344 57.9667 104.46 57.5765 104.692C57.5486 104.85 57.4557 105.268 57.2978 105.947C56.9726 107.405 56.81 108.436 56.81 109.04C56.4849 109.17 55.8996 109.235 55.0541 109.235Z"
          fill="white"/>
    <path d="M65.9073 103.424C65.9259 103.406 65.977 103.285 66.0606 103.062C66.4972 103.062 67.0825 103.192 67.8164 103.452C67.5842 104.223 67.3984 105.031 67.259 105.877C67.1197 106.713 67.05 107.312 67.05 107.675C67.05 108.028 67.0871 108.204 67.1615 108.204C67.2172 108.204 67.4216 108.116 67.7746 107.939L67.9419 107.856L68.1927 108.343C68.1091 108.418 67.9976 108.511 67.8582 108.622C67.7282 108.734 67.4773 108.887 67.1057 109.082C66.7341 109.268 66.3997 109.361 66.1024 109.361C65.5264 109.361 65.1919 109.101 65.099 108.58C64.5044 109.101 63.9656 109.361 63.4825 109.361C63.0087 109.361 62.6046 109.175 62.2701 108.803C61.945 108.432 61.7824 107.846 61.7824 107.047C61.7824 105.803 62.0379 104.822 62.5488 104.107C63.0598 103.382 63.6776 103.02 64.4022 103.02C64.9225 103.02 65.4242 103.155 65.9073 103.424ZM64.3186 108.176C64.5416 108.176 64.7924 108.088 65.0711 107.911C65.1362 106.602 65.3545 105.306 65.7261 104.023C65.4474 103.903 65.2105 103.842 65.0154 103.842C64.681 103.842 64.393 104.172 64.1514 104.832C63.9191 105.482 63.803 106.202 63.803 106.992C63.803 107.781 63.9749 108.176 64.3186 108.176Z"
          fill="white"/>
    <path d="M72.8119 103.187C72.7933 103.42 72.7143 103.689 72.575 103.996C72.2219 103.958 71.8875 103.94 71.5716 103.94H71.3208C70.8934 106.012 70.6797 107.303 70.6797 107.814C70.6797 108.083 70.7355 108.218 70.847 108.218C70.9677 108.218 71.279 108.102 71.7806 107.87L72.0315 108.33C71.2046 109.017 70.4382 109.361 69.7321 109.361C69.407 109.361 69.1375 109.259 68.9239 109.054C68.7195 108.85 68.6173 108.58 68.6173 108.246C68.6173 107.902 68.6545 107.517 68.7288 107.089C68.8124 106.662 68.9239 106.142 69.0632 105.529C69.2026 104.906 69.3048 104.404 69.3698 104.023C69.0261 104.051 68.7706 104.079 68.6034 104.107C68.5848 103.996 68.5755 103.847 68.5755 103.661C68.5755 103.466 68.5894 103.308 68.6173 103.187H69.4952C69.5696 102.686 69.6067 102.212 69.6067 101.766L69.5928 101.334V101.292C70.3174 101.041 71.0003 100.916 71.6413 100.916C71.6785 101.102 71.697 101.334 71.697 101.613C71.697 101.891 71.6181 102.416 71.4601 103.187H72.8119Z"
          fill="white"/>
    <path d="M74.5517 109.361C73.9107 109.361 73.409 109.138 73.0467 108.692C72.6844 108.237 72.5032 107.605 72.5032 106.797C72.5032 105.765 72.7773 104.878 73.3254 104.135C73.8828 103.392 74.6493 103.02 75.6248 103.02L76.1264 103.048C76.2844 102.964 76.4609 102.923 76.656 102.923C77.3899 102.923 77.7569 103.615 77.7569 104.999C78.1378 104.98 78.5234 104.929 78.9135 104.846L79.1365 104.79L79.2201 105.333C78.9135 105.463 78.5001 105.58 77.9799 105.682L77.7012 105.738C77.5246 106.713 77.167 107.563 76.6281 108.288C76.0893 109.003 75.3972 109.361 74.5517 109.361ZM75.3043 108.162C75.6944 108.162 76.0428 107.911 76.3494 107.41C76.6653 106.908 76.8836 106.379 77.0044 105.821C76.0103 105.821 75.5133 105.45 75.5133 104.706C75.5133 104.409 75.5737 104.13 75.6944 103.87L75.7641 103.731C75.727 103.712 75.6805 103.703 75.6248 103.703C75.569 103.703 75.5272 103.712 75.4994 103.731C75.2671 103.879 75.0488 104.228 74.8444 104.776C74.64 105.324 74.5378 105.951 74.5378 106.657C74.5378 107.661 74.7933 108.162 75.3043 108.162Z"
          fill="white"/>
    <path d="M78.4342 109.235H78.1694C78.1694 108.799 78.2995 107.963 78.5596 106.727C78.829 105.491 78.9637 104.79 78.9637 104.623C78.9637 104.316 78.8337 103.991 78.5735 103.647L78.4481 103.48L78.4621 103.299C78.9637 103.159 79.7673 103.09 80.8729 103.09C81.003 103.266 81.068 103.554 81.068 103.954C81.9041 103.331 82.5684 103.02 83.0608 103.02C83.6832 103.02 84.0502 103.341 84.1617 103.982C84.4125 103.777 84.7377 103.568 85.1372 103.355C85.5459 103.132 85.9083 103.02 86.2241 103.02C86.5493 103.02 86.8187 103.127 87.0324 103.341C87.2461 103.545 87.3529 103.833 87.3529 104.205C87.3529 104.576 87.2507 105.189 87.0463 106.044C86.8419 106.899 86.7397 107.475 86.7397 107.772C86.7397 108.06 86.7815 108.204 86.8652 108.204C86.9209 108.204 87.1113 108.116 87.4365 107.939L87.5898 107.856L87.8406 108.343C87.5991 108.585 87.2693 108.817 86.8512 109.04C86.4424 109.254 86.0801 109.361 85.7642 109.361C85.0675 109.361 84.7191 108.966 84.7191 108.176C84.7191 107.888 84.8166 107.312 85.0117 106.448C85.2161 105.575 85.3183 105.008 85.3183 104.748C85.3183 104.479 85.2393 104.344 85.0814 104.344C84.812 104.344 84.5054 104.446 84.1617 104.651C84.1431 104.836 84.013 105.468 83.7715 106.546C83.5392 107.623 83.4231 108.46 83.4231 109.054C83.1537 109.175 82.5219 109.235 81.5279 109.235C81.5093 109.133 81.5 108.887 81.5 108.497C81.5 108.107 81.6068 107.442 81.8205 106.504C82.0435 105.566 82.155 104.971 82.155 104.72C82.155 104.469 82.0667 104.344 81.8902 104.344C81.6115 104.344 81.3049 104.455 80.9704 104.678C80.9519 104.762 80.859 105.171 80.6917 105.905C80.3573 107.373 80.1901 108.418 80.1901 109.04C79.8649 109.17 79.2796 109.235 78.4342 109.235Z"
          fill="white"/>
    <path d="M89.5042 109.249C88.7331 109.249 88.3475 108.822 88.3475 107.967C88.3475 107.763 88.4404 107.173 88.6263 106.197C88.8121 105.222 88.905 104.409 88.905 103.759C88.905 103.619 88.8864 103.489 88.8492 103.369C89.3509 103.173 90.0384 103.076 90.9117 103.076C90.9581 103.206 90.9813 103.429 90.9813 103.745C90.9813 104.061 90.8792 104.692 90.6748 105.64C90.4704 106.588 90.3682 107.205 90.3682 107.493C90.3682 107.781 90.4425 107.925 90.5912 107.925C90.9999 107.925 91.3948 107.781 91.7757 107.493C91.8035 107.15 91.9894 105.751 92.3331 103.299C92.6583 103.169 93.2435 103.104 94.089 103.104H94.3537C94.2422 103.54 94.0564 104.646 93.7963 106.42C93.5455 108.186 93.3643 109.305 93.2528 109.779C93.1413 110.253 92.9881 110.671 92.793 111.033C92.6072 111.395 92.3749 111.665 92.0962 111.841C91.8268 112.027 91.5527 112.153 91.274 112.218C90.9953 112.283 90.633 112.315 90.187 112.315C89.7504 112.315 89.3323 112.171 88.9328 111.883C88.5426 111.604 88.3475 111.363 88.3475 111.158C88.3475 111.028 88.5101 110.829 88.8353 110.559C89.1697 110.29 89.4484 110.123 89.6714 110.058C90.1452 110.531 90.4936 111.047 90.7166 111.604C90.9581 111.604 91.1718 111.316 91.3576 110.74C91.5434 110.164 91.6688 109.319 91.7339 108.204C91.5109 108.427 91.1718 108.659 90.7166 108.901C90.2613 109.133 89.8572 109.249 89.5042 109.249Z"
          fill="white"/>
    <path d="M102.412 104.804C102.467 105.073 102.607 105.208 102.83 105.208C103.062 105.208 103.355 105.115 103.708 104.929C104.061 104.743 104.39 104.544 104.697 104.33C105.004 104.107 105.357 103.903 105.756 103.717C106.156 103.531 106.541 103.438 106.913 103.438C107.294 103.438 107.619 103.564 107.888 103.814C108.158 104.065 108.292 104.4 108.292 104.818C108.292 105.227 108.148 105.589 107.86 105.905C107.572 106.211 107.215 106.365 106.787 106.365C106.221 106.365 105.626 106.077 105.004 105.501C105.013 105.594 105.018 105.728 105.018 105.905C105.018 106.936 104.66 107.791 103.945 108.469C103.229 109.138 102.384 109.472 101.408 109.472C100.721 109.472 100.038 109.268 99.3597 108.859C99.016 108.645 98.7326 108.343 98.5097 107.953C98.2867 107.554 98.1752 107.094 98.1752 106.574C98.1752 105.682 98.4771 104.962 99.081 104.414C99.6942 103.856 100.396 103.536 101.185 103.452C100.043 103.155 99.4712 102.518 99.4712 101.543C99.4712 100.846 99.7546 100.298 100.321 99.8986C100.888 99.4991 101.538 99.2993 102.272 99.2993C103.015 99.2993 103.633 99.4619 104.126 99.7871C104.627 100.103 104.878 100.53 104.878 101.069C104.878 101.413 104.771 101.71 104.558 101.961C104.344 102.212 104.07 102.337 103.735 102.337C103.401 102.337 103.118 102.24 102.885 102.045C102.653 101.84 102.537 101.566 102.537 101.222C102.537 100.749 102.746 100.41 103.164 100.205C103.034 100.187 102.937 100.177 102.871 100.177C102.556 100.177 102.295 100.275 102.091 100.47C101.766 100.777 101.603 101.116 101.603 101.487C101.603 101.85 101.645 102.138 101.729 102.351C101.812 102.565 101.933 102.727 102.091 102.839C102.333 103.006 102.602 103.122 102.899 103.187C102.909 103.187 102.918 103.192 102.927 103.201C102.946 103.201 102.96 103.201 102.969 103.201L102.844 103.87H102.76C102.138 103.87 101.589 104.089 101.116 104.525C100.642 104.962 100.405 105.529 100.405 106.225C100.405 106.913 100.567 107.405 100.893 107.702C101.227 108 101.627 108.148 102.091 108.148C102.704 108.148 103.206 107.902 103.596 107.41C103.986 106.908 104.237 106.314 104.349 105.626C103.763 105.895 103.294 106.03 102.941 106.03C102.588 106.03 102.314 105.942 102.119 105.765C101.933 105.589 101.831 105.343 101.812 105.027C101.942 104.897 102.142 104.822 102.412 104.804ZM107.442 105.013C107.442 104.883 107.396 104.776 107.303 104.692C107.219 104.599 107.057 104.553 106.815 104.553C106.574 104.553 106.183 104.688 105.645 104.957C106.072 105.338 106.485 105.529 106.885 105.529C107.043 105.519 107.173 105.463 107.275 105.361C107.387 105.259 107.442 105.143 107.442 105.013ZM103.666 101.613C103.917 101.613 104.042 101.404 104.042 100.986C104.042 100.818 103.963 100.656 103.805 100.498C103.657 100.544 103.531 100.633 103.429 100.763C103.336 100.893 103.29 101.032 103.29 101.181C103.29 101.329 103.327 101.441 103.401 101.515C103.485 101.58 103.573 101.613 103.666 101.613Z"
          fill="white"/>
    <path d="M31.2105 121.33C31.2105 121.153 31.1873 121.023 31.1408 120.94C31.1036 120.856 31.0154 120.735 30.876 120.577L30.89 120.48C31.3824 120.192 31.9955 120.048 32.7294 120.048C33.0174 120.048 33.2311 120.071 33.3705 120.117C33.4169 120.21 33.4402 120.405 33.4402 120.703C33.4402 120.991 33.2172 122.036 32.7713 123.838C32.9756 123.922 33.2079 123.964 33.468 123.964C33.914 123.964 34.2809 123.81 34.5689 123.504C34.8569 123.197 35.0427 122.867 35.1264 122.514C35.2193 122.152 35.2657 121.771 35.2657 121.372C35.2657 120.638 35.066 120.108 34.6665 119.783C34.2763 119.449 33.6399 119.281 32.7573 119.281C31.6053 119.281 30.6484 119.514 29.8866 119.978C29.1248 120.443 28.7439 120.93 28.7439 121.441C28.7439 121.701 28.8414 121.915 29.0365 122.082C29.2409 122.24 29.45 122.347 29.6636 122.403C29.6265 122.737 29.5104 123.081 29.3153 123.434C28.9622 123.388 28.6278 123.202 28.3119 122.877C27.9867 122.551 27.8242 122.124 27.8242 121.595C27.8242 120.647 28.3537 119.885 29.4128 119.309C30.4719 118.733 31.7075 118.445 33.1196 118.445C34.5318 118.445 35.6002 118.682 36.3248 119.156C37.0494 119.62 37.4118 120.345 37.4118 121.33C37.4118 122.621 36.8962 123.597 35.8649 124.256C35.3075 124.619 34.6386 124.8 33.8582 124.8C33.3658 124.8 32.9431 124.725 32.5901 124.577C32.1999 126.165 31.963 127.438 31.8794 128.395C31.3313 128.553 30.7227 128.632 30.0538 128.632C29.8959 128.632 29.7798 128.618 29.7054 128.59C29.7519 128.005 30.012 126.788 30.4858 124.939C30.9689 123.09 31.2105 121.887 31.2105 121.33Z"
          fill="white"/>
    <path d="M38.7325 119.351C38.7325 119.044 38.7046 118.826 38.6489 118.696C39.3735 118.445 40.0564 118.32 40.6974 118.32C40.781 118.403 40.8228 118.617 40.8228 118.961C40.8228 119.574 40.5627 120.986 40.0424 123.197C40.7949 122.649 41.4545 122.375 42.0213 122.375C42.3743 122.375 42.6391 122.486 42.8156 122.709C43.0014 122.932 43.0943 123.23 43.0943 123.601C43.0943 123.964 42.9875 124.563 42.7738 125.399C42.5601 126.226 42.4533 126.793 42.4533 127.099C42.4533 127.406 42.4904 127.559 42.5647 127.559C42.6391 127.559 42.8342 127.475 43.15 127.308L43.3173 127.225L43.5681 127.712C43.4845 127.787 43.373 127.879 43.2336 127.991C43.0943 128.102 42.8388 128.251 42.4672 128.437C42.0956 128.623 41.7518 128.716 41.436 128.716C41.1294 128.716 40.8832 128.618 40.6974 128.423C40.5116 128.219 40.4187 127.949 40.4187 127.615C40.4187 127.271 40.5209 126.653 40.7253 125.761C40.9389 124.86 41.0458 124.293 41.0458 124.061C41.0458 123.82 40.9482 123.699 40.7531 123.699C40.5116 123.699 40.2096 123.801 39.8473 124.005C39.3364 126.254 39.0809 127.712 39.0809 128.381C38.6907 128.53 38.0264 128.604 37.0881 128.604C37.0788 128.446 37.0742 128.307 37.0742 128.186C37.0742 127.787 37.3482 126.421 37.8964 124.089C38.4538 121.757 38.7325 120.178 38.7325 119.351Z"
          fill="white"/>
    <path d="M45.2277 128.604C44.4566 128.604 44.0711 128.177 44.0711 127.322C44.0711 127.118 44.164 126.528 44.3498 125.552C44.5356 124.577 44.6285 123.764 44.6285 123.114C44.6285 122.974 44.6099 122.844 44.5728 122.723C45.0744 122.528 45.7619 122.431 46.6352 122.431C46.6817 122.561 46.7049 122.784 46.7049 123.1C46.7049 123.415 46.6027 124.047 46.3983 124.995C46.1939 125.942 46.0917 126.56 46.0917 126.848C46.0917 127.136 46.166 127.28 46.3147 127.28C46.7235 127.28 47.1183 127.136 47.4992 126.848C47.5271 126.505 47.7129 125.106 48.0566 122.654C48.3818 122.524 48.9671 122.459 49.8125 122.459H50.0773C49.9658 122.895 49.78 124.001 49.5199 125.775C49.269 127.54 49.0879 128.66 48.9764 129.134C48.8649 129.607 48.7116 130.026 48.5165 130.388C48.3307 130.75 48.0984 131.02 47.8197 131.196C47.5503 131.382 47.2762 131.507 46.9975 131.572C46.7188 131.637 46.3565 131.67 45.9106 131.67C45.4739 131.67 45.0559 131.526 44.6564 131.238C44.2662 130.959 44.0711 130.718 44.0711 130.513C44.0711 130.383 44.2337 130.183 44.5588 129.914C44.8933 129.645 45.172 129.477 45.395 129.412C45.8688 129.886 46.2171 130.402 46.4401 130.959C46.6817 130.959 46.8953 130.671 47.0811 130.095C47.267 129.519 47.3924 128.674 47.4574 127.559C47.2344 127.782 46.8953 128.014 46.4401 128.256C45.9849 128.488 45.5808 128.604 45.2277 128.604Z"
          fill="white"/>
    <path d="M54.6904 126.723C54.6904 127.308 54.4302 127.787 53.91 128.158C53.399 128.53 52.8137 128.716 52.1541 128.716C51.4945 128.716 50.9696 128.576 50.5794 128.298C50.1985 128.019 50.008 127.773 50.008 127.559C50.008 127.429 50.1706 127.22 50.4958 126.932C50.8209 126.635 51.095 126.453 51.318 126.388C51.7825 126.732 52.1634 127.276 52.4607 128.019C52.8044 127.991 52.9763 127.828 52.9763 127.531C52.9763 127.104 52.6 126.5 51.8475 125.719C51.095 124.93 50.7187 124.303 50.7187 123.838C50.7187 123.374 50.9278 123.016 51.3458 122.765C51.7639 122.505 52.2656 122.375 52.8509 122.375C53.4455 122.375 53.8914 122.482 54.1887 122.695C54.486 122.9 54.6346 123.183 54.6346 123.546C54.6346 123.899 54.3513 124.391 53.7845 125.023C53.8496 125.088 53.9332 125.176 54.0354 125.287C54.1376 125.39 54.2723 125.589 54.4395 125.887C54.6067 126.184 54.6904 126.463 54.6904 126.723ZM53.3525 124.535C53.7427 124.201 53.9378 123.871 53.9378 123.546C53.9378 123.22 53.7149 123.058 53.2689 123.058C53.0553 123.058 52.8787 123.104 52.7394 123.197C52.6 123.281 52.5304 123.378 52.5304 123.49C52.5304 123.694 52.7347 123.982 53.1435 124.354L53.3525 124.535Z"
          fill="white"/>
    <path d="M58.2226 123.239C58.2226 123.629 58.0971 124.303 57.8463 125.26C57.5955 126.207 57.47 126.83 57.47 127.127C57.47 127.415 57.5119 127.559 57.5955 127.559C57.6512 127.559 57.8649 127.471 58.2365 127.294L58.4037 127.211L58.6406 127.698C58.557 127.773 58.4455 127.866 58.3062 127.977C58.1668 128.089 57.9067 128.242 57.5258 128.437C57.1449 128.623 56.7919 128.716 56.4667 128.716C56.1415 128.716 55.886 128.618 55.7002 128.423C55.5144 128.219 55.4215 127.949 55.4215 127.615C55.4215 127.271 55.5377 126.667 55.7699 125.803C56.0022 124.93 56.1183 124.363 56.1183 124.103C56.1183 123.713 55.9975 123.346 55.756 123.002L55.6306 122.835L55.6445 122.654C56.1369 122.514 56.9359 122.445 58.0414 122.445C58.1622 122.584 58.2226 122.849 58.2226 123.239ZM56.6339 120.926C56.4481 120.74 56.3552 120.494 56.3552 120.187C56.3552 119.881 56.4806 119.611 56.7315 119.379C56.9916 119.147 57.2889 119.03 57.6233 119.03C57.9578 119.03 58.2179 119.123 58.4037 119.309C58.5895 119.495 58.6824 119.741 58.6824 120.048C58.6824 120.345 58.5477 120.61 58.2783 120.842C58.0182 121.074 57.7255 121.19 57.4004 121.19C57.0752 121.19 56.8197 121.102 56.6339 120.926Z"
          fill="white"/>
    <path d="M61.0858 128.716C60.4447 128.716 59.9431 128.493 59.5807 128.047C59.2184 127.591 59.0372 126.96 59.0372 126.151C59.0372 125.12 59.3113 124.233 59.8594 123.49C60.4169 122.747 61.1833 122.375 62.1588 122.375L62.6605 122.403C62.8184 122.319 62.9949 122.277 63.19 122.277C63.924 122.277 64.2909 122.97 64.2909 124.354C64.6718 124.335 65.0574 124.284 65.4476 124.201L65.6705 124.145L65.7541 124.688C65.4476 124.818 65.0341 124.934 64.5139 125.037L64.2352 125.092C64.0587 126.068 63.701 126.918 63.1621 127.643C62.6233 128.358 61.9312 128.716 61.0858 128.716ZM61.8383 127.517C62.2285 127.517 62.5769 127.266 62.8834 126.765C63.1993 126.263 63.4176 125.733 63.5384 125.176C62.5443 125.176 62.0473 124.804 62.0473 124.061C62.0473 123.764 62.1077 123.485 62.2285 123.225L62.2981 123.086C62.261 123.067 62.2145 123.058 62.1588 123.058C62.1031 123.058 62.0612 123.067 62.0334 123.086C61.8011 123.234 61.5828 123.583 61.3784 124.131C61.174 124.679 61.0718 125.306 61.0718 126.012C61.0718 127.015 61.3273 127.517 61.8383 127.517Z"
          fill="white"/>
    <path d="M65.9099 128.716C65.5941 128.716 65.3293 128.609 65.1156 128.395C64.9112 128.181 64.809 127.884 64.809 127.503C64.809 127.113 65.0367 125.882 65.4919 123.81C65.9564 121.729 66.1887 120.229 66.1887 119.309L66.105 118.696C66.8297 118.445 67.5079 118.32 68.1396 118.32C68.2325 118.45 68.279 118.677 68.279 119.003C68.279 119.746 68.0421 121.186 67.5683 123.323C67.1037 125.45 66.8715 126.69 66.8715 127.043C66.8715 127.387 66.9133 127.559 66.9969 127.559L67.9724 127.211L68.2232 127.698C67.9074 127.949 67.5218 128.181 67.0666 128.395C66.6207 128.609 66.2351 128.716 65.9099 128.716Z"
          fill="white"/>
    <path d="M70.4895 128.716C69.8485 128.716 69.3468 128.493 68.9845 128.047C68.6221 127.591 68.441 126.96 68.441 126.151C68.441 125.12 68.715 124.233 69.2632 123.49C69.8206 122.747 70.587 122.375 71.5625 122.375L72.0642 122.403C72.2221 122.319 72.3987 122.277 72.5938 122.277C73.3277 122.277 73.6947 122.97 73.6947 124.354C74.0756 124.335 74.4611 124.284 74.8513 124.201L75.0743 124.145L75.1579 124.688C74.8513 124.818 74.4379 124.934 73.9176 125.037L73.6389 125.092C73.4624 126.068 73.1047 126.918 72.5659 127.643C72.027 128.358 71.3349 128.716 70.4895 128.716ZM71.242 127.517C71.6322 127.517 71.9806 127.266 72.2872 126.765C72.603 126.263 72.8214 125.733 72.9421 125.176C71.9481 125.176 71.451 124.804 71.451 124.061C71.451 123.764 71.5114 123.485 71.6322 123.225L71.7019 123.086C71.6647 123.067 71.6183 123.058 71.5625 123.058C71.5068 123.058 71.465 123.067 71.4371 123.086C71.2048 123.234 70.9865 123.583 70.7821 124.131C70.5778 124.679 70.4756 125.306 70.4756 126.012C70.4756 127.015 70.731 127.517 71.242 127.517Z"
          fill="white"/>
    <path d="M77.8221 131.001C77.4783 131.233 77.1485 131.401 76.8326 131.503C76.5168 131.614 76.2102 131.67 75.9129 131.67C75.6156 131.67 75.3741 131.586 75.1883 131.419C75.0024 131.252 74.9095 131.01 74.9095 130.694C74.9095 130.388 75.1093 130.095 75.5088 129.817C75.9083 129.538 76.3031 129.347 76.6933 129.245L77.2925 129.106L77.5015 127.991C76.9627 128.4 76.4424 128.604 75.9408 128.604C75.4484 128.604 75.0443 128.414 74.7284 128.033C74.4218 127.652 74.2685 127.043 74.2685 126.207C74.2685 125.111 74.5147 124.201 75.0071 123.476C75.4995 122.742 76.1498 122.375 76.9581 122.375C77.4133 122.375 77.8639 122.486 78.3098 122.709C78.7836 122.542 79.2946 122.459 79.8427 122.459L80.1354 122.473C80.1632 122.584 80.1772 122.742 80.1772 122.946C80.1772 123.764 79.8845 125.599 79.2992 128.451C79.197 129.036 79.0112 129.547 78.7418 129.984C78.4724 130.43 78.1658 130.769 77.8221 131.001ZM77.5852 123.197C77.1857 123.197 76.8698 123.522 76.6375 124.173C76.4053 124.814 76.2892 125.529 76.2892 126.319C76.2892 127.099 76.4657 127.489 76.8187 127.489C77.051 127.489 77.325 127.401 77.6409 127.225C77.901 125.664 78.0868 124.377 78.1983 123.364C77.9382 123.253 77.7338 123.197 77.5852 123.197ZM75.5366 130.667C75.5366 130.843 75.6388 130.931 75.8432 130.931C76.0569 130.931 76.2892 130.811 76.54 130.569C76.7908 130.337 76.9906 130.049 77.1392 129.705C76.8326 129.742 76.4889 129.854 76.108 130.039C75.7271 130.235 75.5366 130.444 75.5366 130.667Z"
          fill="white"/>
    <path d="M81.8764 128.604C81.1053 128.604 80.7198 128.177 80.7198 127.322C80.7198 127.118 80.8127 126.528 80.9985 125.552C81.1843 124.577 81.2772 123.764 81.2772 123.114C81.2772 122.974 81.2586 122.844 81.2214 122.723C81.7231 122.528 82.4106 122.431 83.2839 122.431C83.3303 122.561 83.3536 122.784 83.3536 123.1C83.3536 123.415 83.2514 124.047 83.047 124.995C82.8426 125.942 82.7404 126.56 82.7404 126.848C82.7404 127.136 82.8147 127.28 82.9634 127.28C83.3722 127.28 83.767 127.136 84.1479 126.848C84.1758 126.505 84.3616 125.106 84.7053 122.654C85.0305 122.524 85.6158 122.459 86.4612 122.459H86.726C86.6145 122.895 86.4287 124.001 86.1685 125.775C85.9177 127.54 85.7365 128.66 85.6251 129.134C85.5136 129.607 85.3603 130.026 85.1652 130.388C84.9794 130.75 84.7471 131.02 84.4684 131.196C84.199 131.382 83.9249 131.507 83.6462 131.572C83.3675 131.637 83.0052 131.67 82.5593 131.67C82.1226 131.67 81.7045 131.526 81.3051 131.238C80.9149 130.959 80.7198 130.718 80.7198 130.513C80.7198 130.383 80.8823 130.183 81.2075 129.914C81.542 129.645 81.8207 129.477 82.0436 129.412C82.5174 129.886 82.8658 130.402 83.0888 130.959C83.3303 130.959 83.544 130.671 83.7298 130.095C83.9156 129.519 84.0411 128.674 84.1061 127.559C83.8831 127.782 83.544 128.014 83.0888 128.256C82.6336 128.488 82.2294 128.604 81.8764 128.604Z"
          fill="white"/>
    <path d="M92.2615 120.243C91.4904 120.243 90.868 120.433 90.3942 120.814C90.1062 120.666 89.9389 120.545 89.8925 120.452C89.8925 119.894 90.0318 119.402 90.3105 118.975C90.5892 118.538 90.998 118.32 91.5369 118.32C92.0943 118.32 92.9769 118.626 94.1846 119.239C94.6305 119.472 94.9232 119.606 95.0625 119.644C95.4249 119.356 95.8243 119.119 96.261 118.933C96.7069 118.747 97.0925 118.654 97.4176 118.654C97.7521 118.654 98.0587 118.752 98.3374 118.947C98.6161 119.142 98.7554 119.435 98.7554 119.825C98.7554 120.215 98.5975 120.559 98.2816 120.856C97.9751 121.153 97.5431 121.302 96.9856 121.302C96.7348 121.302 96.4561 121.265 96.1495 121.19C95.8522 121.107 95.6711 121.06 95.606 121.051C95.318 121.339 94.9975 121.739 94.6445 122.25C94.3007 122.751 94.0081 123.276 93.7665 123.824C93.9152 123.806 94.0267 123.796 94.101 123.796C94.8163 123.796 95.4527 124.005 96.0102 124.423C96.5769 124.832 96.8602 125.399 96.8602 126.124C96.8602 126.848 96.5908 127.485 96.052 128.033C95.5224 128.581 94.8024 128.855 93.892 128.855C92.9815 128.855 92.2801 128.553 91.7877 127.949C91.3046 127.345 91.0631 126.639 91.0631 125.831C90.4778 126.379 90.1015 126.978 89.9343 127.629C89.7206 127.591 89.5162 127.526 89.3211 127.434C89.126 127.331 89.0006 127.234 88.9449 127.141C89.3072 126.221 90.0783 125.357 91.2582 124.549C91.4811 123.824 91.8388 123.109 92.3312 122.403C92.8329 121.697 93.3671 121.07 93.9338 120.522C93.3485 120.336 92.7911 120.243 92.2615 120.243ZM95.8987 126.082C95.8987 125.682 95.7268 125.357 95.3831 125.106C95.0393 124.846 94.6863 124.716 94.324 124.716C93.9616 124.716 93.6551 124.767 93.4042 124.869C93.3113 125.185 93.2649 125.566 93.2649 126.012C93.2649 126.449 93.3856 126.83 93.6272 127.155C93.878 127.471 94.1939 127.629 94.5748 127.629C94.965 127.629 95.2809 127.471 95.5224 127.155C95.7733 126.83 95.8987 126.472 95.8987 126.082ZM97.8775 119.922C97.8775 119.746 97.7428 119.658 97.4734 119.658C97.2132 119.658 96.8602 119.853 96.4143 120.243C96.5815 120.336 96.7859 120.382 97.0274 120.382C97.269 120.382 97.4687 120.34 97.6267 120.257C97.7939 120.173 97.8775 120.062 97.8775 119.922Z"
          fill="white"/>
    <path d="M98.1093 126.138C98.1093 124.976 98.4577 124.061 99.1545 123.392C99.8605 122.714 100.659 122.375 101.551 122.375C102.099 122.375 102.55 122.51 102.903 122.779C103.256 123.049 103.433 123.411 103.433 123.866C103.433 124.312 103.317 124.688 103.084 124.995C102.861 125.301 102.587 125.538 102.262 125.706C101.602 126.031 100.999 126.235 100.45 126.319L100.116 126.361C100.181 127.234 100.539 127.67 101.189 127.67C101.412 127.67 101.649 127.615 101.9 127.503C102.151 127.392 102.346 127.28 102.485 127.169L102.694 127.002L103.029 127.447C102.954 127.55 102.806 127.684 102.583 127.852C102.36 128.019 102.151 128.158 101.955 128.27C101.417 128.567 100.827 128.716 100.186 128.716C99.5447 128.716 99.0383 128.488 98.6667 128.033C98.2951 127.578 98.1093 126.946 98.1093 126.138ZM100.102 125.678C100.576 125.594 100.952 125.394 101.231 125.078C101.51 124.763 101.649 124.354 101.649 123.852C101.649 123.35 101.5 123.1 101.203 123.1C100.85 123.1 100.576 123.402 100.381 124.005C100.195 124.6 100.102 125.157 100.102 125.678Z"
          fill="white"/>
    <path d="M104.01 128.59H103.912C103.894 128.516 103.884 128.349 103.884 128.089C103.884 127.819 104.01 127.104 104.261 125.942C104.511 124.781 104.637 124.117 104.637 123.95C104.637 123.662 104.507 123.346 104.247 123.002L104.121 122.835L104.135 122.654C104.637 122.514 105.44 122.445 106.546 122.445C106.658 122.686 106.713 123.025 106.713 123.462C106.815 123.295 107.029 123.072 107.354 122.793C107.679 122.514 108.014 122.375 108.358 122.375C108.859 122.375 109.11 122.812 109.11 123.685C109.064 123.741 108.999 123.815 108.915 123.908C108.841 123.991 108.683 124.112 108.441 124.27C108.209 124.428 107.981 124.526 107.758 124.563C107.749 124.563 107.67 124.437 107.522 124.187C107.373 123.936 107.261 123.81 107.187 123.81C106.955 123.894 106.75 124.033 106.574 124.228C106.147 126.151 105.933 127.396 105.933 127.963C105.933 128.167 105.938 128.311 105.947 128.395C105.622 128.525 104.976 128.59 104.01 128.59Z"
          fill="white"/>
    <path d="M109.183 128.59H108.919C108.919 128.154 109.049 127.317 109.309 126.082C109.578 124.846 109.713 124.145 109.713 123.978C109.713 123.671 109.583 123.346 109.323 123.002L109.197 122.835L109.211 122.654C109.713 122.514 110.517 122.445 111.622 122.445C111.752 122.621 111.817 122.909 111.817 123.309C112.653 122.686 113.318 122.375 113.81 122.375C114.432 122.375 114.799 122.695 114.911 123.337C115.162 123.132 115.487 122.923 115.886 122.709C116.295 122.486 116.657 122.375 116.973 122.375C117.299 122.375 117.568 122.482 117.782 122.695C117.995 122.9 118.102 123.188 118.102 123.559C118.102 123.931 118 124.544 117.796 125.399C117.591 126.254 117.489 126.83 117.489 127.127C117.489 127.415 117.531 127.559 117.614 127.559C117.67 127.559 117.861 127.471 118.186 127.294L118.339 127.211L118.59 127.698C118.348 127.94 118.019 128.172 117.6 128.395C117.192 128.609 116.829 128.716 116.513 128.716C115.817 128.716 115.468 128.321 115.468 127.531C115.468 127.243 115.566 126.667 115.761 125.803C115.965 124.93 116.068 124.363 116.068 124.103C116.068 123.834 115.989 123.699 115.831 123.699C115.561 123.699 115.255 123.801 114.911 124.005C114.892 124.191 114.762 124.823 114.521 125.901C114.288 126.978 114.172 127.814 114.172 128.409C113.903 128.53 113.271 128.59 112.277 128.59C112.259 128.488 112.249 128.242 112.249 127.852C112.249 127.461 112.356 126.797 112.57 125.859C112.793 124.921 112.904 124.326 112.904 124.075C112.904 123.824 112.816 123.699 112.639 123.699C112.361 123.699 112.054 123.81 111.72 124.033C111.701 124.117 111.608 124.526 111.441 125.26C111.107 126.727 110.939 127.773 110.939 128.395C110.614 128.525 110.029 128.59 109.183 128.59Z"
          fill="white"/>
    <path d="M123.347 126.723C123.347 127.308 123.087 127.787 122.567 128.158C122.056 128.53 121.47 128.716 120.811 128.716C120.151 128.716 119.626 128.576 119.236 128.298C118.855 128.019 118.665 127.773 118.665 127.559C118.665 127.429 118.827 127.22 119.153 126.932C119.478 126.635 119.752 126.453 119.975 126.388C120.439 126.732 120.82 127.276 121.117 128.019C121.461 127.991 121.633 127.828 121.633 127.531C121.633 127.104 121.257 126.5 120.504 125.719C119.752 124.93 119.375 124.303 119.375 123.838C119.375 123.374 119.585 123.016 120.003 122.765C120.421 122.505 120.922 122.375 121.508 122.375C122.102 122.375 122.548 122.482 122.845 122.695C123.143 122.9 123.291 123.183 123.291 123.546C123.291 123.899 123.008 124.391 122.441 125.023C122.506 125.088 122.59 125.176 122.692 125.287C122.794 125.39 122.929 125.589 123.096 125.887C123.263 126.184 123.347 126.463 123.347 126.723ZM122.009 124.535C122.399 124.201 122.595 123.871 122.595 123.546C122.595 123.22 122.372 123.058 121.926 123.058C121.712 123.058 121.535 123.104 121.396 123.197C121.257 123.281 121.187 123.378 121.187 123.49C121.187 123.694 121.391 123.982 121.8 124.354L122.009 124.535Z"
          fill="white"/>
    <path d="M109.083 43.6218C110.201 45.2315 110.45 46.9651 109.829 48.9463L98.5235 85.97C98.0266 87.7036 96.9085 89.1895 95.4178 90.4277C93.8028 91.666 92.1878 92.1613 90.4486 92.1613H52.5582C50.4463 92.1613 48.4586 91.4183 46.4709 89.9324C44.4832 88.4465 43.1167 86.713 42.3713 84.608C41.7502 82.7506 41.6259 81.017 42.2471 79.4073C42.2471 79.2835 42.2471 78.912 42.3713 78.2929C42.4956 77.6737 42.4956 77.1784 42.4956 76.807C42.4956 76.5593 42.4956 76.3117 42.3713 75.9402C42.2471 75.5687 42.2471 75.3211 42.2471 75.1972C42.2471 74.9496 42.3713 74.5781 42.6198 74.3305C42.744 74.0828 42.9925 73.7113 43.2409 73.3398C43.4894 72.9684 43.7379 72.5969 43.8621 72.3493C44.4832 71.3586 45.1044 70.1204 45.7255 68.6345C46.3467 67.1486 46.7194 65.9103 46.9679 64.9197C47.0921 64.6721 47.0921 64.1768 46.9679 63.6815C46.8436 63.1862 46.8436 62.8147 46.9679 62.5671C47.0921 62.3194 47.3405 61.8241 47.7132 61.4526C48.0859 60.9573 48.3344 60.7097 48.4586 60.462C49.0798 59.4714 49.5767 58.2332 50.1979 56.7473C50.819 55.2614 51.0675 54.0231 51.1917 53.0325C51.1917 52.7849 51.1917 52.2896 51.0675 51.6704C50.9432 51.0513 50.9432 50.6798 51.0675 50.556C51.1917 50.1845 51.4402 49.8131 51.9371 49.3178C52.434 48.8225 52.6825 48.5748 52.8067 48.451C53.3036 47.708 53.9248 46.5936 54.5459 44.9839C55.1671 43.3741 55.5398 42.0121 55.664 41.0215C55.664 40.7738 55.664 40.4023 55.5398 40.0309C55.4155 39.5356 55.4155 39.1641 55.4155 38.9164C55.4155 38.6688 55.5398 38.4211 55.7882 38.1735C56.0367 37.9258 56.2851 37.5544 56.5336 37.1829C56.7821 36.8114 57.0305 36.5638 57.279 36.3161C57.5275 35.9446 57.7759 35.5732 57.9001 35.0778C58.1486 34.5825 58.3971 34.0872 58.5213 33.5919C58.6455 33.0966 58.894 32.6013 59.1425 32.106C59.3909 31.6107 59.6394 31.1154 59.8878 30.744C60.1363 30.3725 60.509 30.1248 61.0059 29.7534C61.5028 29.5057 61.9998 29.2581 62.4967 29.2581C62.9936 29.2581 63.739 29.2581 64.4844 29.5057V29.6295C65.4782 29.3819 66.2236 29.2581 66.5963 29.2581H97.7782C99.7659 29.2581 101.381 30.001 102.499 31.4869C103.617 32.9728 103.865 34.8302 103.244 36.8114L92.0636 73.8352C91.0697 77.0546 90.0759 79.1596 89.082 80.1502C88.0882 81.1408 86.3489 81.5123 83.8643 81.5123H48.3344C47.589 81.5123 47.0921 81.76 46.7194 82.1314C46.4709 82.6267 46.3467 83.122 46.7194 83.865C47.3405 85.7224 49.3282 86.713 52.6825 86.713H90.5728C91.3182 86.713 92.1878 86.4653 92.8089 86.0939C93.5543 85.7224 94.0512 85.1032 94.2997 84.3603L106.599 43.9933C106.847 43.3741 106.847 42.6312 106.847 41.6406C107.717 42.2597 108.586 42.8788 109.083 43.6218ZM65.4782 43.7456C65.354 44.1171 65.354 44.3647 65.6024 44.6124C65.7267 44.86 66.0994 44.9839 66.4721 44.9839H91.4424C91.8151 44.9839 92.1878 44.86 92.4362 44.6124C92.6847 44.3647 93.0574 43.9933 93.0574 43.7456L93.927 41.1453C94.0512 40.7738 94.0512 40.5262 93.8028 40.2785C93.5543 40.0309 93.3059 39.907 92.9332 39.907H68.0871C67.7144 39.907 67.3417 40.0309 67.0932 40.2785C66.7205 40.5262 66.4721 40.8976 66.4721 41.1453L65.4782 43.7456ZM62.124 54.1469C61.9998 54.5184 61.9998 54.7661 62.2482 55.0137C62.4967 55.2614 62.7451 55.3852 63.1178 55.3852H88.0882C88.4609 55.3852 88.8336 55.2614 89.082 55.0137C89.4547 54.7661 89.7032 54.3946 89.7032 54.1469L90.5728 51.5466C90.697 51.1751 90.697 50.9275 90.4486 50.6798C90.2001 50.4322 89.9516 50.3084 89.5789 50.3084H64.6086C64.2359 50.3084 63.8632 50.4322 63.6148 50.6798C63.2421 50.9275 62.9936 51.299 62.9936 51.5466L62.124 54.1469Z"
          fill="#513C25"/>
    <path d="M103.581 35.5484L106.871 41.7419C106.968 42.3226 106.871 43.0968 106.677 43.871L94.3871 84.2258C93.9032 85.6774 92.3548 86.7419 90.6129 86.7419H52.2903C48.4194 86.6452 47.1613 85.4839 46.5806 83.4516C46.3041 82.4839 46.871 81.5161 47.9355 81.5161H83.5484C87.5161 81.6129 89.6452 80.8387 91.2903 76.1935L103.581 35.5484Z"
          fill="#EAEAEA" stroke="#EAEAEA"/>
    <path d="M92.8386 39.9032H68.5483C67.3283 39.8768 66.8063 40.1935 66.4192 41.1613L65.4516 43.9677C65.2581 44.6452 65.8387 44.9355 66.4192 44.9355H91.4837C92.6452 44.9355 92.7419 44.3548 93.0321 43.6774L94 40.9677C94.2903 40.2903 93.6129 39.9032 92.8386 39.9032Z"
          fill="#FFC114" stroke="#FFC114"/>
    <path d="M89.3927 50.3563H65.1024C63.8824 50.3299 63.3604 50.6467 62.9734 51.6144L62.0057 54.4209C61.8122 55.0983 62.3928 55.3886 62.9733 55.3886H88.0378C89.1993 55.3886 89.296 54.808 89.5862 54.1305L90.5541 51.4209C90.8444 50.7434 90.167 50.3563 89.3927 50.3563Z"
          fill="#FFC114" stroke="#FFC114"/>
    <path d="M71.5549 51.1213L73.1063 51.1724L73.543 51.1631C73.5523 51.2281 73.5569 51.2963 73.5569 51.3675C73.5569 51.4387 73.5445 51.4898 73.5198 51.5208C73.495 51.5517 73.4501 51.5672 73.3851 51.5672C73.3789 51.5672 73.1605 51.5471 72.7301 51.5068C72.7177 51.6462 72.6713 51.8846 72.5907 52.2222C72.5102 52.5597 72.4328 52.9205 72.3585 53.3045C72.2842 53.6885 72.2454 54.0338 72.2423 54.3404C72.1216 54.4023 71.8738 54.4333 71.4991 54.4333H71.4666C71.4666 54.2723 71.5549 53.7923 71.7314 52.9933C71.9079 52.1943 71.9962 51.7081 71.9962 51.5347C71.9962 51.5223 71.9931 51.5006 71.9869 51.4697H71.8011C71.5471 51.4697 71.352 51.5084 71.2158 51.5858C71.1445 51.4929 71.1012 51.3566 71.0857 51.177C71.191 51.1399 71.3474 51.1213 71.5549 51.1213Z"
          fill="black"/>
    <path d="M73.3619 53.6157C73.3619 53.2286 73.4781 52.9236 73.7103 52.7006C73.9457 52.4746 74.212 52.3615 74.5093 52.3615C74.692 52.3615 74.8422 52.4065 74.9599 52.4963C75.0776 52.5861 75.1364 52.7068 75.1364 52.8586C75.1364 53.0072 75.0977 53.1326 75.0203 53.2348C74.9459 53.337 74.8546 53.416 74.7462 53.4717C74.5263 53.5801 74.325 53.6483 74.1423 53.6761L74.0308 53.6901C74.0525 53.9812 74.1717 54.1267 74.3885 54.1267C74.4628 54.1267 74.5418 54.1081 74.6254 54.071C74.709 54.0338 74.7741 53.9966 74.8205 53.9595L74.8902 53.9037L75.0017 54.0524C74.9769 54.0865 74.9274 54.1314 74.853 54.1871C74.7787 54.2428 74.709 54.2893 74.644 54.3265C74.4644 54.4255 74.2677 54.4751 74.0541 54.4751C73.8404 54.4751 73.6716 54.3992 73.5477 54.2475C73.4239 54.0957 73.3619 53.8852 73.3619 53.6157ZM74.0262 53.4625C74.1841 53.4346 74.3096 53.368 74.4025 53.2627C74.4954 53.1574 74.5418 53.0212 74.5418 52.8539C74.5418 52.6867 74.4923 52.6031 74.3932 52.6031C74.2755 52.6031 74.1841 52.7037 74.1191 52.905C74.0572 53.1032 74.0262 53.289 74.0262 53.4625Z"
          fill="black"/>
    <path d="M75.3288 54.4333H75.2963C75.2901 54.4085 75.287 54.3528 75.287 54.2661C75.287 54.1763 75.3288 53.9378 75.4124 53.5507C75.496 53.1636 75.5378 52.9422 75.5378 52.8865C75.5378 52.7905 75.4944 52.6852 75.4077 52.5706L75.3659 52.5148L75.3706 52.4545C75.5378 52.408 75.8057 52.3848 76.1742 52.3848C76.2113 52.4653 76.2299 52.5783 76.2299 52.7239C76.264 52.6681 76.3352 52.5938 76.4436 52.5009C76.552 52.408 76.6635 52.3615 76.7781 52.3615C76.9453 52.3615 77.0289 52.5071 77.0289 52.7982C77.0134 52.8168 76.9917 52.8415 76.9639 52.8725C76.9391 52.9004 76.8864 52.9406 76.8059 52.9933C76.7285 53.0459 76.6526 53.0785 76.5783 53.0908C76.5752 53.0908 76.5489 53.049 76.4993 52.9654C76.4498 52.8818 76.4126 52.84 76.3879 52.84C76.3104 52.8679 76.2423 52.9143 76.1835 52.9794C76.041 53.6204 75.9698 54.0354 75.9698 54.2243C75.9698 54.2924 75.9714 54.3404 75.9744 54.3683C75.8661 54.4116 75.6508 54.4333 75.3288 54.4333Z"
          fill="black"/>
    <path d="M77.0533 54.4333H76.9651C76.9651 54.2877 77.0084 54.009 77.0951 53.5972C77.1849 53.1853 77.2298 52.9515 77.2298 52.8957C77.2298 52.7935 77.1865 52.6852 77.0998 52.5706L77.058 52.5148L77.0626 52.4545C77.2298 52.408 77.4977 52.3848 77.8662 52.3848C77.9096 52.4436 77.9313 52.5396 77.9313 52.6728C78.21 52.4653 78.4314 52.3615 78.5955 52.3615C78.803 52.3615 78.9253 52.4684 78.9625 52.6821C79.0461 52.6139 79.1545 52.5443 79.2876 52.473C79.4239 52.3987 79.5447 52.3615 79.65 52.3615C79.7584 52.3615 79.8482 52.3972 79.9194 52.4684C79.9906 52.5365 80.0262 52.6325 80.0262 52.7564C80.0262 52.8803 79.9922 53.0846 79.924 53.3695C79.8559 53.6545 79.8218 53.8465 79.8218 53.9455C79.8218 54.0415 79.8358 54.0895 79.8636 54.0895C79.8822 54.0895 79.9457 54.0601 80.0541 54.0013L80.1052 53.9734L80.1888 54.136C80.1083 54.2165 79.9984 54.2939 79.859 54.3683C79.7227 54.4395 79.602 54.4751 79.4967 54.4751C79.2644 54.4751 79.1483 54.3435 79.1483 54.0803C79.1483 53.9843 79.1808 53.7923 79.2458 53.5043C79.314 53.2132 79.348 53.0243 79.348 52.9375C79.348 52.8477 79.3217 52.8028 79.2691 52.8028C79.1793 52.8028 79.0771 52.8369 78.9625 52.905C78.9563 52.967 78.9129 53.1775 78.8324 53.5368C78.755 53.896 78.7163 54.1747 78.7163 54.3729C78.6265 54.4132 78.4159 54.4333 78.0845 54.4333C78.0784 54.3992 78.0753 54.3172 78.0753 54.1871C78.0753 54.057 78.1109 53.8356 78.1821 53.5228C78.2564 53.2101 78.2936 53.0119 78.2936 52.9283C78.2936 52.8446 78.2642 52.8028 78.2053 52.8028C78.1124 52.8028 78.0102 52.84 77.8987 52.9143C77.8925 52.9422 77.8616 53.0785 77.8058 53.3231C77.6944 53.8124 77.6386 54.1608 77.6386 54.3683C77.5302 54.4116 77.3351 54.4333 77.0533 54.4333Z"
          fill="black"/>
    <path d="M81.7745 53.8108C81.7745 54.0059 81.6878 54.1654 81.5144 54.2893C81.3441 54.4132 81.149 54.4751 80.9291 54.4751C80.7093 54.4751 80.5343 54.4286 80.4042 54.3357C80.2773 54.2428 80.2138 54.1608 80.2138 54.0895C80.2138 54.0462 80.268 53.9765 80.3764 53.8805C80.4847 53.7814 80.5761 53.721 80.6504 53.6994C80.8053 53.8139 80.9322 53.9951 81.0313 54.2428C81.1459 54.2335 81.2032 54.1794 81.2032 54.0803C81.2032 53.9378 81.0778 53.7365 80.8269 53.4764C80.5761 53.2132 80.4507 53.0041 80.4507 52.8493C80.4507 52.6945 80.5204 52.5752 80.6597 52.4916C80.7991 52.4049 80.9663 52.3615 81.1614 52.3615C81.3596 52.3615 81.5082 52.3972 81.6073 52.4684C81.7064 52.5365 81.756 52.631 81.756 52.7517C81.756 52.8694 81.6615 53.0335 81.4726 53.2441C81.4943 53.2658 81.5222 53.2952 81.5562 53.3324C81.5903 53.3665 81.6352 53.433 81.6909 53.5321C81.7467 53.6312 81.7745 53.7241 81.7745 53.8108ZM81.3286 53.0815C81.4587 52.9701 81.5237 52.8601 81.5237 52.7517C81.5237 52.6434 81.4494 52.5892 81.3007 52.5892C81.2295 52.5892 81.1707 52.6046 81.1242 52.6356C81.0778 52.6635 81.0545 52.696 81.0545 52.7332C81.0545 52.8013 81.1227 52.8973 81.2589 53.0212L81.3286 53.0815Z"
          fill="black"/>
    <path d="M75.2924 43.991C75.2335 43.991 75.1933 43.9894 75.1716 43.9863C75.1933 43.8067 75.2877 43.3515 75.455 42.6206C75.6253 41.8867 75.7105 41.4222 75.7105 41.2271C75.7105 41.1899 75.6888 41.1419 75.6454 41.0831C75.6021 41.0212 75.5587 40.9701 75.5154 40.9298L75.455 40.8648L75.4689 40.7905C75.8932 40.7099 76.3422 40.6697 76.816 40.6697C77.3858 40.6697 77.6707 40.8942 77.6707 41.3432C77.6707 41.5631 77.615 41.7644 77.5035 41.9471C77.3951 42.1267 77.2248 42.2676 76.9925 42.3698C77.1659 42.9489 77.3146 43.3236 77.4385 43.4939C77.4942 43.5652 77.5375 43.6008 77.5685 43.6008C77.6243 43.6008 77.711 43.5729 77.8286 43.5172L77.8844 43.4893L77.9912 43.6612C77.8766 43.7665 77.7435 43.8532 77.5917 43.9213C77.4431 43.9894 77.3022 44.0235 77.169 44.0235C77.039 44.0235 76.9306 43.9677 76.8439 43.8563C76.7603 43.7417 76.6828 43.5745 76.6116 43.3546C76.5435 43.1347 76.4738 42.8529 76.4026 42.5092C76.3035 42.5154 76.2276 42.5185 76.175 42.5185C76.017 43.1966 75.9303 43.655 75.9148 43.8934C75.7817 43.9585 75.5742 43.991 75.2924 43.991ZM76.3561 42.2026C76.5419 42.2026 76.6875 42.1205 76.7928 41.9564C76.9012 41.7892 76.9554 41.591 76.9554 41.3618C76.9554 41.241 76.9337 41.1435 76.8903 41.0692C76.847 40.9948 76.7819 40.9577 76.6952 40.9577C76.6581 40.9577 76.6132 40.9639 76.5605 40.9763C76.511 40.9855 76.4862 40.9917 76.4862 40.9948C76.4366 41.3138 76.3561 41.7164 76.2446 42.2026H76.3561Z"
          fill="black"/>
    <path d="M78.6964 44.0235C78.4827 44.0235 78.3155 43.9492 78.1947 43.8005C78.074 43.6488 78.0136 43.4382 78.0136 43.1688C78.0136 42.825 78.1049 42.5293 78.2876 42.2815C78.4735 42.0338 78.7289 41.9099 79.0541 41.9099L79.2213 41.9192C79.274 41.8914 79.3328 41.8774 79.3978 41.8774C79.6425 41.8774 79.7648 42.1081 79.7648 42.5695C79.8918 42.5634 80.0203 42.5463 80.1504 42.5185L80.2247 42.4999L80.2526 42.681C80.1504 42.7244 80.0125 42.7631 79.8391 42.7972L79.7462 42.8157C79.6874 43.1409 79.5682 43.4243 79.3885 43.6658C79.2089 43.9043 78.9782 44.0235 78.6964 44.0235ZM78.9473 43.624C79.0773 43.624 79.1935 43.5404 79.2956 43.3732C79.4009 43.2059 79.4737 43.0294 79.514 42.8436C79.1826 42.8436 79.0169 42.7197 79.0169 42.472C79.0169 42.3729 79.0371 42.28 79.0773 42.1933L79.1005 42.1468C79.0882 42.1406 79.0727 42.1375 79.0541 42.1375C79.0355 42.1375 79.0216 42.1406 79.0123 42.1468C78.9349 42.1964 78.8621 42.3125 78.794 42.4952C78.7258 42.6779 78.6918 42.887 78.6918 43.1223C78.6918 43.4568 78.7769 43.624 78.9473 43.624Z"
          fill="black"/>
    <path d="M80.6425 44.0235C80.4288 44.0235 80.2616 43.9492 80.1408 43.8005C80.02 43.6488 79.9597 43.4382 79.9597 43.1688C79.9597 42.825 80.051 42.5293 80.2337 42.2815C80.4195 42.0338 80.675 41.9099 81.0002 41.9099L81.1674 41.9192C81.22 41.8914 81.2789 41.8774 81.3439 41.8774C81.5886 41.8774 81.7109 42.1081 81.7109 42.5695C81.8378 42.5634 81.9664 42.5463 82.0964 42.5185L82.1707 42.4999L82.1986 42.681C82.0964 42.7244 81.9586 42.7631 81.7852 42.7972L81.6923 42.8157C81.6335 43.1409 81.5142 43.4243 81.3346 43.6658C81.155 43.9043 80.9243 44.0235 80.6425 44.0235ZM80.8933 43.624C81.0234 43.624 81.1395 43.5404 81.2417 43.3732C81.347 43.2059 81.4198 43.0294 81.46 42.8436C81.1287 42.8436 80.963 42.7197 80.963 42.472C80.963 42.3729 80.9831 42.28 81.0234 42.1933L81.0466 42.1468C81.0342 42.1406 81.0187 42.1375 81.0002 42.1375C80.9816 42.1375 80.9676 42.1406 80.9584 42.1468C80.8809 42.1964 80.8082 42.3125 80.74 42.4952C80.6719 42.6779 80.6378 42.887 80.6378 43.1223C80.6378 43.4568 80.723 43.624 80.8933 43.624Z"
          fill="black"/>
    <path d="M83.3468 41.9657C83.3406 42.0431 83.3143 42.1329 83.2678 42.2351C83.1502 42.2227 83.0387 42.2165 82.9334 42.2165H82.8498C82.7073 42.9071 82.6361 43.3375 82.6361 43.5079C82.6361 43.5977 82.6547 43.6426 82.6918 43.6426C82.7321 43.6426 82.8358 43.6039 83.0031 43.5265L83.0867 43.6797C82.8111 43.9089 82.5556 44.0235 82.3202 44.0235C82.2118 44.0235 82.122 43.9894 82.0508 43.9213C81.9827 43.8532 81.9486 43.7634 81.9486 43.6519C81.9486 43.5373 81.961 43.4088 81.9858 43.2663C82.0136 43.1239 82.0508 42.9505 82.0973 42.7461C82.1437 42.5386 82.1778 42.3714 82.1995 42.2444C82.0849 42.2537 81.9997 42.263 81.944 42.2723C81.9378 42.2351 81.9347 42.1855 81.9347 42.1236C81.9347 42.0586 81.9393 42.0059 81.9486 41.9657H82.2413C82.266 41.7985 82.2784 41.6405 82.2784 41.4919L82.2738 41.3479V41.3339C82.5153 41.2503 82.7429 41.2085 82.9566 41.2085C82.969 41.2705 82.9752 41.3479 82.9752 41.4408C82.9752 41.5337 82.9489 41.7086 82.8962 41.9657H83.3468Z"
          fill="black"/>
    <path d="M84.6982 43.3592C84.6982 43.5543 84.6115 43.7138 84.4381 43.8377C84.2677 43.9615 84.0726 44.0235 83.8528 44.0235C83.6329 44.0235 83.4579 43.977 83.3279 43.8841C83.2009 43.7912 83.1374 43.7092 83.1374 43.6379C83.1374 43.5946 83.1916 43.5249 83.3 43.4289C83.4084 43.3298 83.4997 43.2694 83.5741 43.2477C83.7289 43.3623 83.8559 43.5435 83.955 43.7912C84.0695 43.7819 84.1268 43.7277 84.1268 43.6286C84.1268 43.4862 84.0014 43.2849 83.7506 43.0248C83.4997 42.7615 83.3743 42.5525 83.3743 42.3977C83.3743 42.2428 83.444 42.1236 83.5833 42.04C83.7227 41.9533 83.8899 41.9099 84.085 41.9099C84.2832 41.9099 84.4319 41.9455 84.531 42.0168C84.6301 42.0849 84.6796 42.1794 84.6796 42.3001C84.6796 42.4178 84.5852 42.5819 84.3963 42.7925C84.4179 42.8142 84.4458 42.8436 84.4799 42.8808C84.5139 42.9148 84.5588 42.9814 84.6146 43.0805C84.6703 43.1796 84.6982 43.2725 84.6982 43.3592ZM84.2523 42.6299C84.3823 42.5185 84.4473 42.4085 84.4473 42.3001C84.4473 42.1917 84.373 42.1375 84.2244 42.1375C84.1532 42.1375 84.0943 42.153 84.0479 42.184C84.0014 42.2119 83.9782 42.2444 83.9782 42.2815C83.9782 42.3497 84.0463 42.4457 84.1826 42.5695L84.2523 42.6299Z"
          fill="black"/>
    <path d="M78.1377 47.7009V48.3652C78.0758 48.393 77.9472 48.407 77.7522 48.407H77.7103V47.7009H77.0647C77.0647 47.5182 77.0709 47.3819 77.0832 47.2921H77.7103V46.6465C77.8094 46.6217 77.9503 46.6093 78.1331 46.6093V47.2921H78.8205C78.8205 47.5399 78.8159 47.6761 78.8066 47.7009H78.1377Z"
          fill="black"/>
    <path d="M65.6941 62.7977C65.5795 62.7977 65.4866 62.7574 65.4154 62.6769C65.3442 62.5933 65.3086 62.4818 65.3086 62.3425C65.3086 62.2 65.372 61.8485 65.499 61.288C65.6291 60.7275 65.6941 60.3698 65.6941 60.215C65.6941 60.0601 65.6337 59.9827 65.513 59.9827C65.3457 59.9827 65.1615 60.057 64.9602 60.2057C64.9385 60.3729 64.875 60.6655 64.7697 61.0836C64.6644 61.4986 64.5932 61.8067 64.556 62.008C64.522 62.2062 64.505 62.3595 64.505 62.4679C64.505 62.5763 64.5065 62.6428 64.5096 62.6676C64.3888 62.7295 64.1736 62.7605 63.8639 62.7605H63.7757C63.7757 62.5004 63.8484 62.0575 63.994 61.432C64.1426 60.7941 64.2169 60.393 64.2169 60.2289C64.2169 60.0648 64.1597 59.9827 64.0451 59.9827C63.8779 59.9827 63.6828 60.0632 63.4598 60.2243C63.4257 60.3946 63.3622 60.6717 63.2693 61.0557C63.0619 61.9352 62.9581 62.4725 62.9581 62.6676C62.8373 62.7295 62.6237 62.7605 62.3171 62.7605H62.2288C62.2412 62.6212 62.3233 62.2124 62.475 61.5342C62.6268 60.8529 62.7212 60.3435 62.7584 60.0059C62.7584 59.9564 62.7413 59.8975 62.7073 59.8294C62.6763 59.7582 62.6438 59.7009 62.6097 59.6575L62.5633 59.5925L62.5772 59.5228C62.7506 59.4702 63.0495 59.4439 63.4737 59.4439C63.514 59.5182 63.5341 59.6126 63.5341 59.7272C63.5341 59.752 63.5279 59.817 63.5155 59.9223C63.8717 59.6034 64.1906 59.4439 64.4724 59.4439C64.5994 59.4439 64.7062 59.4872 64.7929 59.5739C64.8797 59.6606 64.9354 59.7737 64.9602 59.913C65.3287 59.6003 65.6415 59.4439 65.8985 59.4439C66.0595 59.4439 66.1896 59.4965 66.2887 59.6018C66.3878 59.7071 66.4373 59.8542 66.4373 60.0431C66.4373 60.232 66.3708 60.5928 66.2376 61.1254C66.1075 61.655 66.0425 62.025 66.0425 62.2356C66.0425 62.3254 66.058 62.3703 66.089 62.3703C66.1168 62.3703 66.1927 62.3394 66.3166 62.2774L66.3816 62.2495L66.4745 62.4214C66.3413 62.536 66.2066 62.6274 66.0704 62.6955C65.9372 62.7636 65.8118 62.7977 65.6941 62.7977ZM63.0835 60.9303C63.0804 60.9365 63.0789 60.9443 63.0789 60.9535L63.0835 60.9303Z"
          fill="black"/>
    <path d="M67.3186 62.7977C67.105 62.7977 66.9377 62.7234 66.817 62.5747C66.6962 62.423 66.6358 62.2124 66.6358 61.943C66.6358 61.5992 66.7272 61.3035 66.9099 61.0557C67.0957 60.808 67.3512 60.6841 67.6763 60.6841L67.8436 60.6934C67.8962 60.6655 67.955 60.6516 68.0201 60.6516C68.2647 60.6516 68.387 60.8823 68.387 61.3437C68.514 61.3375 68.6425 61.3205 68.7726 61.2926L68.8469 61.2741L68.8748 61.4552C68.7726 61.4986 68.6348 61.5373 68.4614 61.5714L68.3685 61.5899C68.3096 61.9151 68.1904 62.1985 68.0108 62.44C67.8312 62.6785 67.6005 62.7977 67.3186 62.7977ZM67.5695 62.3982C67.6996 62.3982 67.8157 62.3146 67.9179 62.1474C68.0232 61.9801 68.0959 61.8036 68.1362 61.6178C67.8048 61.6178 67.6392 61.4939 67.6392 61.2462C67.6392 61.1471 67.6593 61.0542 67.6996 60.9675L67.7228 60.921C67.7104 60.9148 67.6949 60.9117 67.6763 60.9117C67.6577 60.9117 67.6438 60.9148 67.6345 60.921C67.5571 60.9706 67.4843 61.0867 67.4162 61.2694C67.3481 61.4521 67.314 61.6612 67.314 61.8965C67.314 62.231 67.3992 62.3982 67.5695 62.3982Z"
          fill="black"/>
    <path d="M68.5984 62.7559H68.5659C68.5597 62.7311 68.5566 62.6754 68.5566 62.5886C68.5566 62.4988 68.5984 62.2604 68.682 61.8733C68.7657 61.4862 68.8075 61.2648 68.8075 61.209C68.8075 61.113 68.7641 61.0077 68.6774 60.8932L68.6356 60.8374L68.6402 60.777C68.8075 60.7306 69.0753 60.7074 69.4438 60.7074C69.481 60.7879 69.4996 60.9009 69.4996 61.0465C69.5337 60.9907 69.6049 60.9164 69.7133 60.8235C69.8217 60.7306 69.9331 60.6841 70.0477 60.6841C70.2149 60.6841 70.2986 60.8297 70.2986 61.1208C70.2831 61.1394 70.2614 61.1641 70.2335 61.1951C70.2087 61.223 70.1561 61.2632 70.0756 61.3159C69.9982 61.3685 69.9223 61.401 69.848 61.4134C69.8449 61.4134 69.8186 61.3716 69.769 61.288C69.7195 61.2044 69.6823 61.1626 69.6575 61.1626C69.5801 61.1905 69.512 61.2369 69.4531 61.3019C69.3107 61.943 69.2395 62.3579 69.2395 62.5468C69.2395 62.615 69.241 62.663 69.2441 62.6908C69.1357 62.7342 68.9205 62.7559 68.5984 62.7559Z"
          fill="black"/>
    <path d="M70.1536 63.7825C70.1381 63.7453 70.1303 63.6632 70.1303 63.5363C70.1303 63.4093 70.1907 63.0686 70.3115 62.5143C70.4323 61.9569 70.4927 61.528 70.4927 61.2276C70.4927 61.1688 70.4787 61.1068 70.4509 61.0418C70.423 60.9737 70.3936 60.921 70.3626 60.8839L70.3208 60.8328L70.3254 60.7724C70.471 60.7259 70.728 60.7027 71.0965 60.7027C71.1306 60.7677 71.1523 60.8591 71.1616 60.9768C71.4 60.7817 71.5982 60.6841 71.7562 60.6841C71.9172 60.6841 72.0457 60.7507 72.1417 60.8839C72.2408 61.017 72.2903 61.2121 72.2903 61.4692C72.2903 61.9182 72.2083 62.2526 72.0442 62.4725C71.88 62.6893 71.6725 62.7977 71.4217 62.7977C71.2916 62.7977 71.1833 62.7791 71.0965 62.7419L71.0501 62.7234L71.0826 62.5422C71.1105 62.5484 71.143 62.5515 71.1802 62.5515C71.2607 62.5515 71.3303 62.5143 71.3892 62.44C71.4511 62.3657 71.4976 62.2712 71.5285 62.1566C71.5905 61.9275 71.6214 61.7154 71.6214 61.5203C71.6214 61.2415 71.5642 61.1022 71.4496 61.1022C71.3598 61.1022 71.2638 61.1378 71.1616 61.209C71.1492 61.4258 71.0857 61.8052 70.9711 62.3471C70.8565 62.889 70.7993 63.3257 70.7993 63.657C70.632 63.7252 70.4168 63.767 70.1536 63.7825Z"
          fill="black"/>
    <path d="M73.0455 59.6761C73.0455 59.5739 73.0362 59.5012 73.0176 59.4578C73.2592 59.3742 73.4868 59.3324 73.7004 59.3324C73.7283 59.3603 73.7423 59.4315 73.7423 59.5461C73.7423 59.7505 73.6555 60.2212 73.4821 60.9582C73.733 60.7755 73.9528 60.6841 74.1417 60.6841C74.2594 60.6841 74.3477 60.7213 74.4065 60.7956C74.4684 60.8699 74.4994 60.969 74.4994 61.0929C74.4994 61.2137 74.4638 61.4134 74.3926 61.6921C74.3213 61.9677 74.2857 62.1566 74.2857 62.2588C74.2857 62.361 74.2981 62.4121 74.3229 62.4121C74.3477 62.4121 74.4127 62.3843 74.518 62.3285L74.5737 62.3006L74.6574 62.4632C74.6295 62.488 74.5923 62.519 74.5459 62.5561C74.4994 62.5933 74.4143 62.6428 74.2904 62.7048C74.1665 62.7667 74.0519 62.7977 73.9466 62.7977C73.8444 62.7977 73.7624 62.7652 73.7004 62.7001C73.6385 62.632 73.6075 62.5422 73.6075 62.4307C73.6075 62.3161 73.6416 62.1102 73.7097 61.8129C73.781 61.5125 73.8166 61.3236 73.8166 61.2462C73.8166 61.1657 73.7841 61.1254 73.719 61.1254C73.6385 61.1254 73.5379 61.1595 73.4171 61.2276C73.2468 61.977 73.1616 62.4632 73.1616 62.6862C73.0315 62.7357 72.8101 62.7605 72.4973 62.7605C72.4943 62.7079 72.4927 62.6614 72.4927 62.6212C72.4927 62.488 72.5841 62.0328 72.7668 61.2555C72.9526 60.4782 73.0455 59.9517 73.0455 59.6761Z"
          fill="black"/>
    <path d="M75.4568 62.7977C75.2431 62.7977 75.0758 62.7234 74.9551 62.5747C74.8343 62.423 74.7739 62.2124 74.7739 61.943C74.7739 61.5992 74.8653 61.3035 75.048 61.0557C75.2338 60.808 75.4893 60.6841 75.8144 60.6841L75.9817 60.6934C76.0343 60.6655 76.0931 60.6516 76.1582 60.6516C76.4028 60.6516 76.5251 60.8823 76.5251 61.3437C76.6521 61.3375 76.7806 61.3205 76.9107 61.2926L76.985 61.2741L77.0129 61.4552C76.9107 61.4986 76.7729 61.5373 76.5995 61.5714L76.5066 61.5899C76.4477 61.9151 76.3285 62.1985 76.1489 62.44C75.9693 62.6785 75.7386 62.7977 75.4568 62.7977ZM75.7076 62.3982C75.8377 62.3982 75.9538 62.3146 76.056 62.1474C76.1613 61.9801 76.234 61.8036 76.2743 61.6178C75.9429 61.6178 75.7773 61.4939 75.7773 61.2462C75.7773 61.1471 75.7974 61.0542 75.8377 60.9675L75.8609 60.921C75.8485 60.9148 75.833 60.9117 75.8144 60.9117C75.7958 60.9117 75.7819 60.9148 75.7726 60.921C75.6952 60.9706 75.6224 61.0867 75.5543 61.2694C75.4862 61.4521 75.4521 61.6612 75.4521 61.8965C75.4521 62.231 75.5373 62.3982 75.7076 62.3982Z"
          fill="black"/>
    <path d="M77.0648 62.7977C76.9595 62.7977 76.8713 62.7621 76.8 62.6908C76.7319 62.6196 76.6978 62.5205 76.6978 62.3935C76.6978 62.2635 76.7737 61.8532 76.9255 61.1626C77.0803 60.4689 77.1577 59.9688 77.1577 59.6622L77.1298 59.4578C77.3714 59.3742 77.5975 59.3324 77.808 59.3324C77.839 59.3757 77.8545 59.4516 77.8545 59.56C77.8545 59.8077 77.7755 60.2877 77.6176 61C77.4627 61.7092 77.3853 62.1226 77.3853 62.2403C77.3853 62.3548 77.3993 62.4121 77.4271 62.4121L77.7523 62.296L77.8359 62.4586C77.7306 62.5422 77.6021 62.6196 77.4504 62.6908C77.3017 62.7621 77.1732 62.7977 77.0648 62.7977Z"
          fill="black"/>
    <path d="M78.5913 62.7977C78.3777 62.7977 78.2104 62.7234 78.0897 62.5747C77.9689 62.423 77.9085 62.2124 77.9085 61.943C77.9085 61.5992 77.9998 61.3035 78.1826 61.0557C78.3684 60.808 78.6238 60.6841 78.949 60.6841L79.1162 60.6934C79.1689 60.6655 79.2277 60.6516 79.2927 60.6516C79.5374 60.6516 79.6597 60.8823 79.6597 61.3437C79.7867 61.3375 79.9152 61.3205 80.0453 61.2926L80.1196 61.2741L80.1475 61.4552C80.0453 61.4986 79.9075 61.5373 79.734 61.5714L79.6411 61.5899C79.5823 61.9151 79.4631 62.1985 79.2835 62.44C79.1038 62.6785 78.8731 62.7977 78.5913 62.7977ZM78.8422 62.3982C78.9722 62.3982 79.0884 62.3146 79.1906 62.1474C79.2958 61.9801 79.3686 61.8036 79.4089 61.6178C79.0775 61.6178 78.9118 61.4939 78.9118 61.2462C78.9118 61.1471 78.932 61.0542 78.9722 60.9675L78.9955 60.921C78.9831 60.9148 78.9676 60.9117 78.949 60.9117C78.9304 60.9117 78.9165 60.9148 78.9072 60.921C78.8298 60.9706 78.757 61.0867 78.6889 61.2694C78.6207 61.4521 78.5867 61.6612 78.5867 61.8965C78.5867 62.231 78.6718 62.3982 78.8422 62.3982Z"
          fill="black"/>
    <path d="M80.427 63.2436C80.3248 63.3055 80.2737 63.3659 80.2737 63.4248C80.2737 63.4836 80.3062 63.513 80.3713 63.513C80.4394 63.513 80.5153 63.4805 80.5989 63.4155C80.6825 63.3535 80.7522 63.2514 80.8079 63.1089C80.6593 63.1368 80.5323 63.1817 80.427 63.2436ZM81.8066 60.7166C81.819 60.729 81.8252 60.7569 81.8252 60.8003C81.8252 60.8405 81.8221 60.8854 81.8159 60.935C81.8097 60.9814 81.7989 61.0883 81.7834 61.2555C81.7679 61.4227 81.7524 61.5683 81.7369 61.6921C81.579 63.0857 81.1547 63.7825 80.4642 63.7825C80.3527 63.7825 80.2505 63.753 80.1576 63.6942C80.0678 63.6354 80.0229 63.5595 80.0229 63.4666C80.0229 63.3427 80.0987 63.2297 80.2505 63.1275C80.4022 63.0253 80.6066 62.9463 80.8636 62.8906C80.8636 62.8875 80.8729 62.8441 80.8915 62.7605C80.9101 62.6769 80.9225 62.6088 80.9287 62.5561C80.7429 62.6924 80.5679 62.7605 80.4038 62.7605C80.2427 62.7605 80.1096 62.697 80.0043 62.5701C79.9021 62.4431 79.851 62.2403 79.851 61.9615C79.851 61.5961 79.9331 61.2926 80.0972 61.0511C80.2613 60.8065 80.4781 60.6841 80.7475 60.6841C80.8993 60.6841 81.0495 60.7213 81.1981 60.7956C81.356 60.7399 81.5264 60.712 81.7091 60.712L81.8066 60.7166ZM80.9566 60.9582C80.8234 60.9582 80.7181 61.0666 80.6407 61.2834C80.5633 61.497 80.5246 61.7355 80.5246 61.9987C80.5246 62.2588 80.5834 62.3889 80.7011 62.3889C80.7785 62.3889 80.8698 62.3595 80.9751 62.3006C81.0618 61.7804 81.1238 61.3515 81.1609 61.0139C81.0742 60.9768 81.0061 60.9582 80.9566 60.9582Z"
          fill="black"/>
    <path d="M82.6237 63.2436C82.5215 63.3055 82.4704 63.3659 82.4704 63.4248C82.4704 63.4836 82.5029 63.513 82.5679 63.513C82.636 63.513 82.7119 63.4805 82.7955 63.4155C82.8791 63.3535 82.9488 63.2514 83.0046 63.1089C82.8559 63.1368 82.7289 63.1817 82.6237 63.2436ZM82.4007 62.7605C82.1406 62.7605 82.0105 62.6181 82.0105 62.3332C82.0105 62.265 82.0415 62.0684 82.1034 61.7432C82.1653 61.4181 82.1963 61.1471 82.1963 60.9303C82.1963 60.8839 82.1901 60.8405 82.1777 60.8003C82.3449 60.7352 82.5741 60.7027 82.8652 60.7027C82.8807 60.7461 82.8884 60.8204 82.8884 60.9257C82.8884 61.031 82.8544 61.2493 82.7862 61.5806C82.7181 61.912 82.684 62.1257 82.684 62.2217C82.684 62.3177 82.7243 62.3657 82.8048 62.3657C82.9008 62.3657 83.0169 62.3177 83.1532 62.2217C83.1687 62.039 83.2306 61.5574 83.339 60.777C83.4474 60.7337 83.6425 60.712 83.9243 60.712H84.0126C83.9537 60.9443 83.8964 61.2787 83.8407 61.7154C83.7849 62.152 83.74 62.4555 83.706 62.6258C83.6409 62.9665 83.5202 63.2436 83.3437 63.4573C83.1702 63.6741 82.9426 63.7825 82.6608 63.7825C82.5493 63.7825 82.4471 63.753 82.3542 63.6942C82.2644 63.6354 82.2195 63.5595 82.2195 63.4666C82.2195 63.3427 82.2954 63.2297 82.4471 63.1275C82.5989 63.0253 82.8033 62.9463 83.0603 62.8906C83.0882 62.7543 83.1098 62.6227 83.1253 62.4957C82.8745 62.6723 82.6329 62.7605 82.4007 62.7605Z"
          fill="black"/>
</svg>
